<svg width="48" height="48" viewBox="0 0 48 48" fill="none" xmlns="http://www.w3.org/2000/svg">
<path d="M10.8599 4.66754C10.8329 4.15483 10.8059 3.67295 10.7827 3.18915C10.7441 2.41815 10.7081 1.65229 10.6746 0.891572C10.6705 0.800116 10.675 0.70847 10.6881 0.617867C10.7033 0.471505 10.7696 0.335172 10.8756 0.232907C10.9815 0.130643 11.1202 0.0690159 11.2672 0.0588928C11.415 0.0530608 11.5601 0.100445 11.6759 0.192422C11.7917 0.284399 11.8707 0.414854 11.8983 0.560043C11.9228 0.687151 11.9364 0.816122 11.9388 0.945542C11.9993 2.1316 12.0591 3.31701 12.1183 4.50178C12.1278 4.54681 12.1401 4.59122 12.155 4.63477C12.2534 4.63477 12.348 4.63477 12.4484 4.63477C13.3066 4.59622 14.1655 4.55639 15.025 4.51527C17.7271 4.38034 20.4292 4.3842 23.1429 4.49985C24.4859 4.57409 25.8325 4.55477 27.1728 4.44202C29.278 4.26376 31.3918 4.20777 33.5034 4.27433C34.2427 4.28783 34.9838 4.29361 35.7249 4.30325H36.0569C36.0685 4.18567 36.0859 4.08158 36.0878 3.97557C36.1013 3.33757 36.1071 2.69764 36.1206 2.04807C36.1303 1.64715 36.1418 1.2443 36.1689 0.843385C36.1792 0.679693 36.2143 0.518513 36.2731 0.365365C36.3222 0.241554 36.4125 0.138458 36.5289 0.0734905C36.6453 0.00852262 36.7806 -0.0143352 36.9119 0.00877784C37.0444 0.0278402 37.1666 0.0905422 37.2593 0.186926C37.352 0.28331 37.4097 0.40785 37.4234 0.540767C37.4321 0.658828 37.4321 0.777367 37.4234 0.895427C37.3964 1.98254 37.3706 3.06965 37.3462 4.15676C37.3502 4.20483 37.358 4.25251 37.3694 4.29939H37.6318C39.89 4.31096 42.1482 4.33216 44.4083 4.3283C44.9943 4.32289 45.5734 4.45494 46.099 4.7138C46.1724 4.75042 46.2477 4.78705 46.3229 4.81596C46.5729 4.90795 46.8004 5.05216 46.9901 5.23897C47.1798 5.42578 47.3274 5.65087 47.4231 5.89921C47.7369 6.67107 47.9139 7.49156 47.9461 8.32401C48.021 9.60094 48.0178 10.8813 47.9365 12.1578C47.8689 13.2603 47.8226 14.3667 47.8014 15.4712C47.7164 20.0374 47.6798 24.6056 47.7164 29.1738C47.7357 31.4868 47.7338 33.7998 47.7473 36.1128C47.7473 36.6062 47.7898 37.0996 47.7936 37.5911C47.7936 38.4874 47.7936 39.3818 47.7936 40.2762C47.7936 40.4959 47.8091 40.7137 47.8187 40.9334C47.8342 41.2515 47.8554 41.5714 47.8631 41.8972C47.8786 42.5467 47.8824 43.1944 47.8998 43.842C47.9208 44.319 47.8212 44.7936 47.6103 45.2221C47.5292 45.386 47.4713 45.5614 47.3883 45.7233C47.3113 45.8886 47.2176 46.0455 47.1085 46.1917C46.555 46.91 45.7494 47.3921 44.8542 47.5409C44.252 47.6431 43.6537 47.7818 43.0495 47.8705C42.347 47.9755 41.6364 48.0168 40.9265 47.9939C38.732 47.909 36.5472 47.7028 34.3643 47.4985C33.4359 47.4118 32.5017 47.3771 31.5695 47.3809C28.8809 47.3809 26.1924 47.4349 23.5038 47.4599C22.5986 47.4599 21.6934 47.4599 20.7882 47.4599C18.3737 47.4599 15.963 47.4831 13.5446 47.4734C12.128 47.4734 10.7113 47.4195 9.29849 47.3925C8.89511 47.3925 8.49366 47.3925 8.0922 47.3828C7.12717 47.3828 6.17179 47.3655 5.21254 47.3636C4.99309 47.3571 4.7735 47.37 4.55632 47.4021C3.90072 47.4968 3.23169 47.4046 2.62626 47.1361C2.15025 46.9347 1.75265 46.5843 1.49331 46.1377C0.947697 45.2557 0.605521 44.2634 0.491605 43.2329C0.404092 42.2318 0.387968 41.2256 0.443353 40.2222C0.478094 38.9982 0.507045 37.7743 0.549506 36.5599C0.64794 33.8749 0.636359 31.188 0.549506 28.503C0.516695 27.4814 0.431772 26.4618 0.36615 25.4402C0.187954 22.7963 0.148655 20.145 0.248416 17.497C0.302458 16.1824 0.381591 14.8679 0.279297 13.5533C0.231046 12.9442 0.144193 12.3371 0.0862908 11.728C-0.0366084 10.188 -0.0282146 8.64048 0.111382 7.10197C0.141253 6.64897 0.252389 6.20502 0.439493 5.79127C0.561069 5.50921 0.739474 5.25516 0.963605 5.04492C1.18774 4.83468 1.45279 4.67276 1.74229 4.56924C1.9052 4.50979 2.07654 4.47661 2.24989 4.47094C3.75921 4.4401 5.26659 4.43239 6.77397 4.53647C7.32211 4.57309 7.86638 4.64634 8.41452 4.66562C9.17304 4.69453 9.93155 4.68874 10.6901 4.69453C10.7472 4.68874 10.8039 4.67973 10.8599 4.66754ZM1.60525 15.1107C1.59367 15.184 1.58595 15.211 1.58402 15.2379C1.53963 16.7626 1.47787 18.2872 1.45664 19.8138C1.43155 21.6315 1.47208 23.451 1.62069 25.2629C1.74936 26.8755 1.82657 28.4901 1.8523 30.1067C1.88897 32.5546 1.87739 35.0025 1.79054 37.4504C1.76094 38.2214 1.741 38.9976 1.73071 39.7789C1.71527 40.7561 1.68438 41.7333 1.71141 42.7106C1.74863 43.656 2.02556 44.5766 2.51624 45.386C2.61446 45.5665 2.75228 45.7225 2.9194 45.8423C3.08651 45.9622 3.27859 46.0427 3.48128 46.0779C3.86368 46.167 4.25802 46.1937 4.64897 46.157C5.10403 46.1186 5.56092 46.1064 6.01738 46.1203C6.65816 46.1203 7.29701 46.1068 7.94745 46.1068C8.46856 46.1068 8.98968 46.1126 9.5108 46.1242C10.8078 46.1473 12.1067 46.1955 13.4057 46.1974C15.2798 46.1974 17.1558 46.1319 19.0299 46.1627C21.6181 46.2032 24.2044 46.1627 26.7926 46.1261C28.769 46.1049 30.7434 46.1088 32.7198 46.1146C34.0844 46.1146 35.4335 46.3439 36.7923 46.4403C38.0237 46.5277 39.255 46.6125 40.4864 46.6947C40.5848 46.6947 40.6794 46.6947 40.7991 46.6947C40.7586 46.5347 40.7257 46.3979 40.6833 46.2225C40.7443 46.2432 40.8026 46.271 40.857 46.3054C40.9356 46.3678 41.0063 46.4397 41.0674 46.5193C41.1177 46.5946 41.1895 46.6532 41.2734 46.6875C41.3573 46.7219 41.4495 46.7304 41.5383 46.7121C41.8568 46.6812 42.1772 46.6639 42.5033 46.6388C42.5883 46.6388 42.6732 46.6157 42.8025 46.5984C42.6655 46.4191 42.5535 46.2784 42.4493 46.13C42.2794 45.8929 42.1115 45.6539 41.9513 45.4091C41.9012 45.3339 41.8259 45.2452 41.9089 45.1335C42.0575 45.1122 42.1463 45.2183 42.2351 45.3011C42.5439 45.5883 42.8565 45.8698 43.1403 46.1801C43.23 46.2995 43.3537 46.3892 43.4951 46.4376C43.6365 46.4861 43.7892 46.4911 43.9335 46.4519C44.0156 46.4432 44.0981 46.4393 44.1806 46.4403C44.2605 46.4292 44.3393 46.4111 44.416 46.3863C44.5646 46.3401 44.7075 46.2842 44.8542 46.2321L45.1726 46.1165C44.6341 45.5228 44.1362 44.96 43.617 44.401C43.0978 43.842 42.5574 43.3062 42.0729 42.701C42.123 42.6758 42.1797 42.6668 42.2351 42.6755C42.2905 42.6841 42.3418 42.7099 42.3817 42.7491C42.5747 42.886 42.7678 43.0228 42.9608 43.1732C43.4471 43.576 43.9258 43.9924 44.4083 44.3933C44.8564 44.7556 45.2611 45.1682 45.6146 45.623C45.6571 45.677 45.7092 45.7252 45.7671 45.7888C46.292 45.4033 46.5237 44.8675 46.6665 44.2796C46.6871 44.2053 46.6832 44.1264 46.6554 44.0546C46.6276 43.9827 46.5773 43.9217 46.5121 43.8806C45.9759 43.438 45.4805 42.9484 45.0317 42.4176C44.7885 42.1343 44.5318 41.8586 44.2693 41.5907C43.8081 41.1223 43.3352 40.6655 42.8739 40.1952C42.6423 39.962 42.4242 39.7153 42.2022 39.4724C42.1693 39.4254 42.1415 39.375 42.1193 39.322C42.1933 39.3059 42.2708 39.319 42.3354 39.3587C42.5048 39.4677 42.6685 39.5854 42.8257 39.7114C44.0474 40.7407 45.2981 41.7391 46.4465 42.8551C46.5082 42.9168 46.5738 42.9708 46.6684 43.0479C46.68 42.9419 46.6896 42.8879 46.6916 42.8359C46.707 42.2782 46.7199 41.7211 46.7302 41.1647C46.735 41.111 46.7229 41.057 46.6954 41.0105C46.559 40.8057 46.4101 40.6093 46.2496 40.4226C45.8513 39.9574 45.4092 39.5314 44.9294 39.1505C44.9294 39.1505 44.9294 39.1197 44.9178 39.0888C45.1264 39.0637 45.3369 39.1151 45.5104 39.2334C45.8443 39.4415 46.1627 39.6709 46.487 39.8907L46.7456 40.0738C46.7225 39.723 46.6935 39.4338 46.6877 39.1428C46.6894 38.978 46.6494 38.8155 46.5715 38.6703C46.4935 38.5251 46.3802 38.4019 46.2419 38.312C46.1685 38.2581 46.0759 38.206 46.0624 38.0962C46.238 37.9844 46.3866 38.1366 46.5661 38.1212C46.5661 38.0191 46.5661 37.9285 46.5661 37.8205C46.5391 35.9296 46.4966 34.0407 46.4889 32.1498C46.4735 28.5595 46.4735 24.9686 46.4889 21.377C46.4889 19.4958 46.5391 17.6146 46.5661 15.7333C46.5661 15.6292 46.5661 15.5232 46.5565 15.4153C46.0161 15.4153 45.5142 15.4153 45.0124 15.4153C44.5646 15.4268 44.1188 15.4673 43.671 15.4808C43.1306 15.4962 42.5921 15.5117 42.0536 15.5001C41.3318 15.4847 40.6099 15.448 39.8881 15.4114C38.7378 15.3536 37.5875 15.2893 36.4371 15.2187C35.4046 15.1589 34.3739 15.0433 33.349 15.0259C30.9712 15.0066 28.5934 14.9623 26.2078 15.0799C24.8838 15.1454 23.5578 15.1628 22.2319 15.209C19.5298 15.2996 16.8412 15.4172 14.143 15.4827C11.4447 15.5483 8.73877 15.4538 6.03668 15.2707C4.68564 15.1801 3.31336 15.1396 1.95266 15.078C1.8137 15.1069 1.7172 15.1107 1.60525 15.1107ZM12.1376 14.2723C12.2997 13.8868 12.4368 13.5379 12.5893 13.1948C13.313 11.5603 14.1816 10.0067 14.9883 8.42038C15.2373 7.93465 15.5365 7.47205 15.8318 7.01138C16.0769 6.62588 16.351 6.25966 16.6038 5.88379C16.6314 5.83008 16.654 5.77395 16.6713 5.7161C15.7893 5.75272 14.9343 5.7932 14.0928 5.81826C14.0114 5.8186 13.9318 5.8422 13.8634 5.88626C13.795 5.93032 13.7406 5.993 13.7068 6.06691C13.4327 6.51216 13.12 6.94777 12.8247 7.37761C12.7707 7.45663 12.7089 7.54723 12.5738 7.50482C12.5738 7.4682 12.5468 7.43158 12.5564 7.40074C12.7244 6.82249 13.1355 6.40036 13.4481 5.85874L12.1801 5.90885C12.1801 6.02065 12.1685 6.1016 12.1685 6.19798C12.1685 6.58348 12.1801 6.9844 12.1801 7.37568C12.1801 8.04259 12.1801 8.70951 12.1666 9.37642C12.1604 9.56691 12.1164 9.75427 12.0373 9.92769C11.9865 10.0271 11.9079 10.1097 11.8112 10.1656C11.7144 10.2214 11.6035 10.2481 11.4919 10.2424C11.3802 10.2367 11.2727 10.1989 11.1821 10.1334C11.0915 10.068 11.0219 9.97781 10.9815 9.87372C10.93 9.71839 10.9052 9.55545 10.9082 9.39184C10.9082 8.34328 10.9082 7.2928 10.9082 6.24231C10.9082 6.15364 10.8985 6.06498 10.8927 5.96282C10.7043 5.97256 10.5156 5.97256 10.3272 5.96282C10.2071 5.94007 10.0828 5.96334 9.97907 6.02799C9.87534 6.09264 9.79981 6.19393 9.7675 6.3117C9.31393 7.36219 8.71561 8.33557 8.15203 9.32823C7.31053 10.8124 6.47416 12.3004 5.64295 13.7923C5.61014 13.8501 5.59084 13.9176 5.55803 13.9851L5.72015 14.0043C6.46709 14.0487 7.21595 14.0892 7.96482 14.1412C8.036 14.1528 8.10902 14.1401 8.17206 14.1051C8.23511 14.0701 8.2845 14.0149 8.31223 13.9484C8.75421 13.1929 9.20778 12.4411 9.66327 11.6913C9.85628 11.3688 10.0531 11.0476 10.2539 10.7276C10.2807 10.6642 10.323 10.6086 10.377 10.5658C10.4309 10.523 10.4948 10.4945 10.5627 10.4828C10.1091 11.8321 9.23866 12.9307 8.53998 14.1663L12.1376 14.2723ZM35.393 10.398L35.4509 10.4346C35.454 10.4786 35.4501 10.5229 35.4393 10.5657C34.9761 11.6663 34.5071 12.763 33.8161 13.7769L37.1706 14.0313C38.4367 11.1401 39.9383 8.42038 41.3569 5.62744C41.2681 5.62744 41.1986 5.60816 41.1291 5.60623C40.5906 5.5966 40.0502 5.5966 39.5117 5.57347C39.4292 5.56092 39.3448 5.57833 39.274 5.62253C39.2032 5.66673 39.1506 5.7348 39.1257 5.8144C38.8767 6.37916 38.4869 6.85718 38.1356 7.3564C38.111 7.4109 38.0678 7.45484 38.0136 7.48029C37.9595 7.50574 37.898 7.51102 37.8403 7.49518C37.8963 7.10968 38.1414 6.84754 38.3132 6.54685C38.4849 6.24616 38.6779 5.92427 38.8709 5.5831H37.3037C37.3037 5.75658 37.3037 5.91078 37.3037 6.06498C37.3166 7.22148 37.3301 8.38119 37.3443 9.54412C37.3489 9.69007 37.3379 9.83611 37.3115 9.97973C37.2897 10.1027 37.2287 10.2153 37.1376 10.3008C37.0464 10.3863 36.93 10.44 36.8058 10.4539C36.6776 10.4704 36.5475 10.4454 36.4346 10.3826C36.3217 10.3198 36.2319 10.2225 36.1785 10.105C36.137 10.014 36.1096 9.91712 36.0974 9.81782C36.081 9.68224 36.0733 9.54575 36.0743 9.40919C36.0588 8.20257 36.0453 6.9966 36.0338 5.79127C36.0338 5.72188 36.0202 5.65057 36.0106 5.55226C35.6574 5.55226 35.3196 5.55226 34.9819 5.55226C34.9192 5.54349 34.8555 5.55678 34.8016 5.58984C34.7477 5.62291 34.707 5.67368 34.6866 5.73345C34.5129 6.09582 34.3218 6.45048 34.1462 6.81092C33.874 7.36797 33.5864 7.91923 33.3432 8.48977C32.6186 10.279 31.7376 12.0012 30.7106 13.6362C30.6901 13.6782 30.6721 13.7213 30.6566 13.7653C30.7763 13.7653 30.8728 13.7769 30.9693 13.7769C31.7104 13.7769 32.4516 13.7673 33.1927 13.7885C33.2951 13.8026 33.3993 13.782 33.4885 13.7299C33.5778 13.6778 33.6469 13.5973 33.6849 13.5013C33.8952 13.0579 34.1172 12.6165 34.3469 12.1809C34.6171 11.6721 34.8969 11.169 35.1787 10.6678C35.2422 10.5719 35.3139 10.4816 35.393 10.398ZM34.5901 5.57925C34.4897 5.56961 34.4202 5.55612 34.3507 5.55419L31.5251 5.51757C31.3881 5.51757 31.2511 5.51757 31.114 5.51757C31.0552 5.5078 30.9949 5.52011 30.9446 5.55215C30.8944 5.58418 30.8578 5.63366 30.8419 5.69104C30.8226 5.74309 30.7956 5.79127 30.7724 5.84139C30.3221 6.82827 29.8717 7.81643 29.4214 8.80588C28.8925 9.97009 28.365 11.1349 27.8387 12.3004C27.6457 12.7399 27.4295 13.1755 27.2249 13.615C27.2032 13.6663 27.1852 13.7192 27.1709 13.773H30.2687C30.5948 13.1736 30.9017 12.6165 31.2047 12.0537C31.3186 11.8436 31.4267 11.6335 31.5328 11.4215C32.4709 9.54219 33.3297 7.6224 34.4569 5.84332C34.5051 5.76814 34.5437 5.68526 34.5901 5.58118V5.57925ZM23.1255 13.9253C23.1699 13.9349 23.2151 13.9408 23.2606 13.9427C24.3569 13.908 25.4531 13.8675 26.5417 13.8367C26.6057 13.8407 26.6691 13.822 26.7206 13.7839C26.7722 13.7458 26.8086 13.6908 26.8235 13.6285C27.7634 11.3695 28.9002 9.19524 29.9116 6.97669C30.122 6.51409 30.4018 6.08233 30.6469 5.62744C30.6579 5.59979 30.6638 5.57042 30.6643 5.5407C30.2667 5.5407 29.8826 5.52335 29.5063 5.5407C28.8771 5.57539 28.2498 5.639 27.6206 5.67562C27.549 5.67283 27.4781 5.69129 27.4169 5.72869C27.3558 5.76608 27.3071 5.82072 27.277 5.88572C26.9702 6.46397 26.6382 7.04222 26.341 7.62047C25.5072 9.26463 24.6888 10.9165 23.8589 12.5606C23.6273 13.0175 23.3802 13.4531 23.1255 13.9272V13.9253ZM23.6427 5.80669C22.1547 8.51676 20.7283 11.2789 19.2962 14.0795L22.7279 13.9562L26.9181 5.76429L23.6427 5.80669ZM19.8926 5.6737H19.5549C18.7963 5.6737 18.0378 5.69683 17.2774 5.68912C17.174 5.67302 17.0683 5.69373 16.9786 5.74765C16.889 5.80156 16.8212 5.88523 16.7871 5.98402C16.6978 6.16413 16.5986 6.33916 16.4899 6.5083C15.992 7.40074 15.4786 8.28546 15.0038 9.19138C14.4383 10.2766 13.9075 11.3791 13.3593 12.4681C13.0949 12.9905 12.8228 13.5071 12.5545 14.0275C12.5236 14.0892 12.4947 14.1508 12.4426 14.253C13.6913 14.253 14.9015 14.2414 16.1232 14.174C16.1599 14.066 16.1927 13.9716 16.2236 13.8771C16.3973 13.3663 16.5343 12.8421 16.7466 12.3506C17.536 10.5233 18.2907 8.67674 19.219 6.91501C19.4391 6.52372 19.6533 6.1228 19.8926 5.67562V5.6737ZM9.50308 6.00715C9.42781 5.99559 9.36797 5.9821 9.31007 5.97824C8.51682 5.92234 7.72356 5.87416 6.93223 5.81055C6.8704 5.80083 6.80708 5.81111 6.75152 5.83989C6.69596 5.86868 6.65107 5.91445 6.62342 5.97053C6.38409 6.35603 6.13318 6.72033 5.88614 7.09234C5.02275 8.38633 4.16002 9.6784 3.29792 10.9685C2.74206 11.8031 2.1862 12.6416 1.62455 13.4743C1.58557 13.523 1.5608 13.5816 1.55297 13.6435C1.54514 13.7053 1.55455 13.7682 1.58016 13.8251L5.1006 13.9542C6.43281 11.2327 7.90219 8.58026 9.50308 6.00715ZM16.4108 14.1489C16.4299 14.1605 16.4508 14.1689 16.4725 14.174C17.2214 14.1489 17.9703 14.1219 18.7211 14.1026C18.7752 14.1036 18.8281 14.0867 18.8717 14.0547C18.9153 14.0226 18.9471 13.9772 18.9623 13.9253C19.3097 13.1813 19.6494 12.4334 20.0123 11.6971C20.9773 9.72337 21.979 7.7631 23.1351 5.88765C23.1514 5.85032 23.1643 5.81162 23.1737 5.772C22.1778 5.72767 21.1973 5.69683 20.2149 5.68719C18.694 8.40689 17.5476 11.275 16.4108 14.1489ZM41.5943 5.62358L37.5276 14.0602L40.0753 14.1759C40.2297 13.8058 40.359 13.455 40.5173 13.1177C41.6753 10.6486 42.9704 8.24498 44.252 5.83561C44.2848 5.77585 44.3079 5.71032 44.3465 5.62358H41.5943ZM40.3764 14.1643C40.9921 14.1971 41.5576 14.2183 42.1135 14.2626C42.2053 14.2811 42.3007 14.267 42.3832 14.2226C42.4657 14.1783 42.53 14.1065 42.5651 14.0198C43.1171 12.9693 43.6672 11.9169 44.2481 10.8837C44.885 9.75421 45.5567 8.6459 46.2091 7.52602C46.5217 6.98825 46.5179 6.98632 46.2592 6.42349C46.2438 6.3888 46.2264 6.35796 46.211 6.32326C46.1515 6.18805 46.0413 6.08149 45.9041 6.02643C45.6609 5.92234 45.4235 5.80477 45.1745 5.71225C45.0274 5.66832 44.877 5.6361 44.7248 5.61587C44.5434 5.57925 44.4508 5.65635 44.3716 5.8279C43.7559 7.15016 43.1229 8.46664 42.5072 9.79083C42.2235 10.4019 41.9668 11.0264 41.6985 11.647C41.3356 12.5067 41.023 13.3972 40.3764 14.1643ZM6.42656 5.79127C6.27408 5.77971 6.14863 5.76429 6.02317 5.76236C5.44415 5.74887 4.85162 5.74887 4.26681 5.72574C4.18278 5.71318 4.09694 5.72866 4.02261 5.76978C3.94828 5.8109 3.88961 5.87537 3.85571 5.95318C3.62978 6.42174 3.37784 6.87734 3.10105 7.31785C2.56063 8.12162 1.98548 8.90226 1.41225 9.68097C1.31146 9.80946 1.25827 9.96881 1.2617 10.132C1.2864 11.0818 1.36826 12.0293 1.50682 12.9693C1.51325 12.9982 1.52364 13.0261 1.5377 13.0522L6.42656 5.79127ZM46.5584 7.33327H46.4928C46.4735 7.36411 46.4503 7.3911 46.4349 7.42194C45.9195 8.48013 45.3888 9.53062 44.8908 10.5985C44.3468 11.7831 43.7273 12.9317 43.036 14.0371C43.0013 14.0949 42.9723 14.1585 42.9241 14.2491C43.038 14.2491 43.1171 14.2491 43.2001 14.2491C43.7791 14.2222 44.3678 14.1894 44.9507 14.1682C45.0292 14.1728 45.1073 14.1546 45.1758 14.116C45.2442 14.0774 45.3001 14.0199 45.3367 13.9504C45.7497 13.2507 46.1782 12.5606 46.5873 11.861C46.6612 11.7261 46.7047 11.5768 46.7147 11.4234C46.7749 10.3657 46.7646 9.30518 46.6839 8.24883C46.6549 7.94236 46.5989 7.63782 46.5584 7.33327ZM3.57392 5.74116C3.50112 5.72899 3.42764 5.72126 3.35389 5.71803C3.04315 5.71803 2.73241 5.73923 2.42167 5.73538C2.25968 5.72911 2.09954 5.7715 1.96192 5.85705C1.8243 5.94261 1.71552 6.0674 1.64964 6.21532C1.53535 6.42318 1.45889 6.64963 1.42383 6.88417C1.35434 7.49904 1.32539 8.11969 1.28293 8.73649C1.28293 8.76348 1.30416 8.79432 1.31767 8.82708L3.57392 5.74116ZM45.6358 14.1219L46.5738 14.1797L46.651 12.445H46.6067L45.6358 14.1219Z" fill="#FCFDF7"/>
<path d="M34.2813 30.4632C34.2637 31.5542 34.1166 32.6393 33.8432 33.6957C33.7132 34.1812 33.5232 34.6486 33.2777 35.0873C32.751 36.0529 32.0532 36.9149 31.2183 37.6316C30.3964 38.3443 29.5321 39.0066 28.6301 39.615C27.4378 40.4216 26.0002 40.7851 24.5673 40.6424C23.8647 40.5807 23.1583 40.5807 22.4596 40.4997C20.932 40.3538 19.4664 39.8233 18.2 38.9577C17.1946 38.2857 16.3131 37.4451 15.5944 36.4732C14.4773 34.9278 13.7936 33.1124 13.6141 31.2148C13.4346 29.3172 13.7658 27.4062 14.5734 25.6792C15.1943 24.3486 16.1144 23.1791 17.262 22.2617C18.3737 21.3365 19.636 20.6523 20.9291 20.0278C21.5171 19.7496 22.1536 19.5879 22.8032 19.5517C24.6278 19.4276 26.4532 19.7831 28.0974 20.5829C29.1603 21.065 30.138 21.716 30.9925 22.5104C31.8721 23.3815 32.5851 24.4058 33.0962 25.5327C33.3336 26.0358 33.544 26.5523 33.7621 27.0651C34.1887 28.0751 34.2871 29.1545 34.2813 30.4632ZM24.2816 39.3587C24.3048 39.3587 24.3859 39.3587 24.4746 39.3587C24.5634 39.3587 24.6387 39.3702 24.7198 39.376C25.8503 39.4901 26.9849 39.202 27.9237 38.5626C28.7889 37.9809 29.6172 37.3462 30.4038 36.6621C31.1315 36.0456 31.7337 35.295 32.1775 34.4512C32.3568 34.1128 32.5011 33.7569 32.6079 33.3892C32.9165 32.2306 33.0544 31.0332 33.0171 29.8349C33.0129 28.8722 32.7975 27.9221 32.386 27.0516C32.2875 26.8453 32.2026 26.6333 32.1138 26.4232C31.7431 25.546 31.2457 24.7277 30.6373 23.9946C30.3894 23.667 30.0993 23.3734 29.7746 23.1214C29.0939 22.6129 28.375 22.1573 27.6245 21.7587C26.1625 21.0235 24.5285 20.6972 22.8958 20.8142C22.3372 20.8462 21.7917 20.9967 21.2958 21.2556C20.7786 21.5274 20.2574 21.7953 19.7518 22.0844C18.9772 22.5193 18.2562 23.0433 17.6036 23.6457C16.0596 25.0836 15.2316 26.8877 14.9285 28.9482C14.7397 30.3569 14.8717 31.7899 15.3145 33.1405C16.1908 35.9932 18.7366 38.4836 21.7204 39.0984C22.5668 39.2461 23.4228 39.3318 24.2816 39.3548V39.3587Z" fill="#FCFDF7"/>
<path d="M22.8668 33.0866C23.1543 32.9091 23.4084 32.6827 23.6176 32.4177C24.021 31.8992 24.4244 31.3788 24.8336 30.8642C24.9932 30.6525 25.1673 30.4522 25.3547 30.2647C26.3677 29.2875 27.2735 28.2052 28.0568 27.0362C28.2807 26.7027 28.5374 26.3924 28.7806 26.0724C28.8136 26.0282 28.8504 25.9869 28.8906 25.949C28.9902 25.8399 29.1253 25.7696 29.272 25.7505C29.4186 25.7315 29.5673 25.7649 29.6916 25.845C29.8119 25.9282 29.8985 26.0515 29.936 26.1928C29.9735 26.3341 29.9594 26.4841 29.8961 26.616C29.8399 26.7413 29.7693 26.8596 29.6858 26.9687C29.3152 27.4776 28.9292 27.9768 28.5702 28.4933C28.0343 29.2703 27.4255 29.9944 26.7521 30.656C26.1312 31.2892 25.5553 31.9648 25.0285 32.6779C24.6599 33.156 24.3028 33.6417 23.7971 33.9925C23.6424 34.1059 23.4798 34.2083 23.3108 34.299C23.1563 34.3812 22.9826 34.4205 22.8077 34.4127C22.6328 34.4049 22.4633 34.3503 22.3168 34.2546C22.2151 34.1923 22.1171 34.1241 22.0234 34.0503C21.3158 33.487 20.6548 32.8676 20.047 32.198C19.6398 31.7547 19.221 31.3191 18.8118 30.8777C18.6964 30.7591 18.5924 30.63 18.501 30.4922C18.4407 30.413 18.4077 30.3163 18.4072 30.2168C18.4066 30.1173 18.4385 30.0203 18.4979 29.9405C18.5574 29.8606 18.6413 29.8022 18.7369 29.7741C18.8325 29.7461 18.9346 29.7498 19.0279 29.7848C19.4388 29.887 19.8147 30.0973 20.1165 30.3939C20.3732 30.6541 20.6183 30.9259 20.8615 31.1996C21.4171 31.8318 22.0246 32.4166 22.6777 32.9478C22.7337 32.9883 22.7935 33.0307 22.8668 33.0866Z" fill="#FCFDF7"/>
</svg>
