<svg width="48" height="48" viewBox="0 0 48 48" fill="none" xmlns="http://www.w3.org/2000/svg">
<path d="M3.45867 47.6169C3.40458 47.374 3.37496 47.1267 3.37022 46.8784C3.35548 46.4508 3.37022 46.0231 3.37022 45.5978C3.37022 45.2333 3.32353 44.871 3.29405 44.4714C3.19823 44.5112 3.12206 44.5322 3.04835 44.5696C2.51561 44.8629 1.88349 44.9468 1.28669 44.8033C1.17858 44.7799 1.06556 44.7682 0.954997 44.7542C0.61839 44.7121 0.483255 44.6116 0.441487 44.2868C0.36532 43.7213 0.29161 43.1558 0.259669 42.5879C0.21053 41.8775 0.222815 41.1554 0.188417 40.4286C0.149105 39.5826 0.208073 38.739 0.247385 37.8954C0.368133 36.027 0.350891 34.1529 0.195788 32.2868C0.165174 31.898 0.160251 31.5078 0.181046 31.1184C0.231194 30.6035 0.199721 30.0844 0.0876803 29.5784C0.0630836 29.4837 0.055606 29.3857 0.0655674 29.2886C0.0776862 29.1703 0.133886 29.0601 0.224009 28.9778C0.314132 28.8955 0.432233 28.8466 0.556965 28.8399C0.674631 28.8366 0.789961 28.8716 0.883813 28.9392C0.977665 29.0068 1.0444 29.1028 1.07293 29.2115C1.10241 29.3143 1.11728 29.4204 1.11716 29.5269C1.1663 30.3262 1.22281 31.1231 1.25229 31.9246C1.28178 32.7262 1.2916 33.5067 1.28669 34.2989C1.27686 35.8927 1.25721 37.4927 1.22772 39.0989C1.21298 39.9799 1.16384 40.8609 1.14664 41.7396C1.1319 42.4407 1.14664 43.1254 1.14664 43.8568C1.27195 43.8428 1.39234 43.8381 1.48325 43.8171C1.91352 43.7196 2.32483 43.5579 2.70192 43.338C3.4204 42.9208 4.17595 42.5642 4.95989 42.2724C5.78274 41.9525 6.64066 41.7213 7.51761 41.583C9.03425 41.3846 10.5788 41.5319 12.0237 42.013C13.2522 42.415 14.5151 42.7748 15.7657 43.1371C16.4773 43.3472 17.2376 43.3569 17.9549 43.1651C18.8836 42.9197 19.8026 42.6486 20.719 42.3682C21.2522 42.2046 21.7755 42.0153 22.2939 41.8144C23.5863 41.3119 24.8836 41.347 26.1932 41.7396C26.8713 41.9406 27.5544 42.1252 28.2374 42.3145C28.7485 42.4547 29.2571 42.6019 29.7755 42.7234C30.6281 42.9221 31.4954 43.1137 32.343 43.2843C32.8452 43.3535 33.3572 43.3152 33.8418 43.1721C35.0065 42.9068 36.1456 42.5488 37.2472 42.1018C37.9326 41.794 38.6532 41.5627 39.3946 41.4124C39.8423 41.3131 40.308 41.3131 40.7558 41.4124C40.8916 41.4471 41.0307 41.469 41.171 41.4779C41.684 41.5285 42.1798 41.6822 42.6255 41.9289C43.3282 42.2817 44.0285 42.63 44.7484 42.9571C45.2533 43.1685 45.7691 43.3557 46.2938 43.518C46.4899 43.5662 46.6895 43.6006 46.8909 43.6208C46.8909 43.4479 46.8909 43.3053 46.8909 43.1534C46.8761 42.7982 46.8589 42.4523 46.8417 42.0878C46.7999 41.2979 46.7582 40.5057 46.7115 39.7158C46.6402 38.5264 46.5469 37.3392 46.596 36.1427C46.6353 35.208 46.596 34.2732 46.596 33.3384C46.5739 31.6465 46.542 29.9569 46.5248 28.2674C46.5386 27.974 46.5681 27.6815 46.6132 27.391C46.5174 27.391 46.4191 27.391 46.3184 27.391L43.8221 27.377C43.6255 27.377 43.429 27.3606 43.2349 27.3419C43.0092 27.322 42.7943 27.2409 42.6157 27.1083C42.5422 27.0637 42.4825 27.0014 42.4427 26.9276C42.4029 26.8539 42.3844 26.7714 42.3892 26.6887C42.3939 26.6059 42.4217 26.5258 42.4697 26.4567C42.5177 26.3875 42.5842 26.3317 42.6624 26.295C42.9 26.1673 43.1712 26.1072 43.4437 26.1221L46.7262 26.1501C46.8172 26.1501 46.9105 26.1501 47.0063 26.1501C47.0923 24.5418 47.0923 22.9304 47.0063 21.3221C46.4683 21.2824 45.9375 21.2193 45.4093 21.2123C43.2668 21.1819 41.1268 21.1538 38.9843 21.1538C37.2914 21.1538 35.5985 21.1982 33.9057 21.2193C33.2619 21.2193 32.6158 21.2356 31.972 21.2193C31.2349 21.1959 30.4978 21.1328 29.7607 21.1071C28.6674 21.0697 27.574 21.0206 26.4807 21.0276C24.5544 21.0393 22.6281 21.0954 20.7018 21.1258C19.5126 21.1445 18.3259 21.1819 17.1392 21.1562C15.5964 21.1382 14.0538 21.1975 12.5176 21.3338C11.6134 21.4062 10.7068 21.467 9.80016 21.488C9.21294 21.4997 8.62572 21.4366 8.0385 21.4039C7.68223 21.3829 7.32843 21.3525 6.97462 21.3291C6.23752 21.28 5.48323 21.2263 4.7363 21.1866C3.98938 21.1468 3.27931 21.1024 2.55204 21.0977C2.09504 21.0977 1.6405 21.1655 1.16876 21.2029C1.16876 21.287 1.16876 21.3548 1.16876 21.4226C1.24329 22.39 1.25642 23.3608 1.20807 24.3297C1.17367 24.8952 1.20807 25.4654 1.20807 26.052C1.27195 26.052 1.3432 26.0753 1.41445 26.0824C3.53943 26.247 5.67367 26.2751 7.80263 26.1665C9.16543 26.0933 10.5266 25.9967 11.8861 25.8767C13.2003 25.7587 14.5224 25.7423 15.8394 25.8276C17.8271 25.9585 19.8124 26.1081 21.7976 26.2646C24.0331 26.4593 26.278 26.5374 28.5224 26.4983C29.719 26.4656 30.9155 26.4586 32.1145 26.4493C33.23 26.4493 34.3258 26.3067 35.4388 26.1945C36.5322 26.0477 37.6345 25.9697 38.7386 25.9608C39.0884 25.9445 39.4341 26.039 39.7214 26.2296C39.8024 26.288 39.9081 26.316 39.9892 26.3745C40.0916 26.4375 40.1822 26.5165 40.257 26.6082C40.3872 26.7764 40.343 26.9003 40.1489 26.9961C40.1243 27.0096 40.0978 27.0198 40.0703 27.0265C39.7106 27.116 39.3429 27.1731 38.972 27.1971C37.8399 27.2 36.7094 27.2781 35.5887 27.4307C34.1963 27.5962 32.7953 27.6882 31.3922 27.7065C30.2251 27.7065 29.0556 27.7322 27.8861 27.7509C25.9843 27.7813 24.09 27.6738 22.1981 27.5172C19.9868 27.349 17.7608 27.176 15.5397 27.0498C14.6355 26.9961 13.7264 27.0358 12.8198 27.0498C11.7993 27.0732 10.7813 27.1145 9.76576 27.1737C8.94512 27.2228 8.12695 27.3186 7.30877 27.391C5.98325 27.4837 4.65271 27.4923 3.32599 27.4167C2.58889 27.3887 1.87145 27.3326 1.14173 27.2882C0.869885 27.2773 0.604638 27.2052 0.367777 27.0779C0.250283 27.0403 0.152075 26.9618 0.0928399 26.8582C0.0336046 26.7547 0.0177194 26.6336 0.0483685 26.5194C0.0628599 26.4837 0.067922 26.4452 0.0631104 26.4072C-0.06711 25.8837 0.0409975 25.3603 0.0631104 24.8368C0.0852233 23.9301 0.104879 23.0234 0.146648 22.1166C0.168761 21.6025 0.227729 21.0884 0.276868 20.5766C0.287735 20.4788 0.312532 20.3829 0.350578 20.2915C0.375895 20.2181 0.425991 20.1547 0.493082 20.1112C0.560172 20.0677 0.640501 20.0465 0.721583 20.0508C0.991852 20.0508 1.26212 19.983 1.52993 19.9877C2.11961 19.9877 2.70683 20.0391 3.29405 20.0672L3.55203 20.0835C3.3434 19.8053 3.15461 19.5141 2.98693 19.2119C2.86042 18.8908 2.75618 18.5621 2.67489 18.228H2.45622C2.22277 18.2239 1.98977 18.2067 1.75843 18.1766C1.609 18.1481 1.46905 18.0855 1.35057 17.9943C1.27849 17.9472 1.22026 17.8834 1.1814 17.8088C1.14254 17.7343 1.12434 17.6516 1.12852 17.5685C1.13271 17.4854 1.15914 17.4047 1.20531 17.334C1.25148 17.2634 1.31586 17.2051 1.39234 17.1647C1.56657 17.0577 1.77273 17.0077 1.97956 17.0222C2.5029 17.0222 3.02624 17.0222 3.54958 17.0362H3.84442C3.78053 16.9568 3.74859 16.9077 3.70928 16.868C3.54466 16.6974 3.37022 16.5361 3.21788 16.3585C2.8904 16.02 2.70352 15.5798 2.69209 15.12C2.59108 15.1186 2.49022 15.1124 2.38988 15.1013C2.16382 15.0824 1.93959 15.0472 1.71912 14.9961C1.61762 14.973 1.52647 14.9198 1.45889 14.8442C1.3913 14.7686 1.35078 14.6745 1.3432 14.5755C1.33942 14.4793 1.36472 14.3842 1.41612 14.3013C1.46751 14.2185 1.54283 14.1514 1.63313 14.1081C1.87776 13.9749 2.15246 13.8995 2.4341 13.8884C2.72157 13.8604 3.0115 13.844 3.31371 13.8206C3.31371 13.7038 3.19823 13.6617 3.12943 13.6033C2.76131 13.3196 2.52202 12.9121 2.46113 12.4652C2.45622 12.3858 2.45622 12.2806 2.44148 12.1521C2.33582 12.1521 2.23755 12.1521 2.13927 12.1521C1.98058 12.1549 1.82193 12.1447 1.66507 12.1217C1.53532 12.0963 1.41757 12.0319 1.32912 11.9381C1.24067 11.8443 1.18619 11.726 1.17367 11.6006C1.16446 11.4747 1.19887 11.3494 1.27165 11.2439C1.34442 11.1384 1.45154 11.0585 1.57662 11.0164C1.75389 10.9611 1.93819 10.9289 2.12452 10.9206C2.61592 10.8902 3.09503 10.8715 3.61592 10.8481C3.583 10.794 3.5469 10.7418 3.50781 10.6915C3.34319 10.4976 3.17366 10.3083 3.01641 10.1096C2.76011 9.80437 2.60529 9.43337 2.5717 9.04402C2.41199 9.04402 2.27194 9.04402 2.13435 9.04402C1.89772 9.04553 1.66808 8.96776 1.48571 8.82435C1.4254 8.78452 1.37564 8.73191 1.34036 8.67067C1.30507 8.60943 1.28521 8.54124 1.28235 8.47146C1.2795 8.40168 1.29371 8.33222 1.32388 8.26856C1.35406 8.20489 1.39936 8.14876 1.45622 8.10459C1.58072 7.99885 1.72722 7.91923 1.8862 7.8709C2.03877 7.82987 2.19698 7.81097 2.35548 7.81481C4.48815 7.78677 6.62081 7.80313 8.74365 7.8966C10.267 7.96437 11.7928 7.98307 13.3161 8.02747C14.1662 8.05084 15.0163 8.08355 15.8689 8.10225C16.3063 8.11393 16.7461 8.10225 17.1859 8.10225C17.5609 8.10632 17.933 8.16544 18.2891 8.27752C18.5544 8.34996 18.7239 8.52289 18.7043 8.68881C18.6748 8.9225 18.493 9.0113 18.2915 9.07674C18.1859 9.11179 18.0753 9.13282 18.0065 9.15152L17.3554 10.6588L17.8198 10.6869C18.0339 10.693 18.2474 10.7133 18.4586 10.7476C18.604 10.779 18.739 10.844 18.8517 10.9369C18.9323 11.0058 18.9914 11.0945 19.0226 11.1931C19.0539 11.2918 19.0561 11.3968 19.029 11.4965C19.0019 11.5963 18.9465 11.6871 18.8689 11.759C18.7913 11.8309 18.6944 11.8812 18.5888 11.9044C18.4704 11.9304 18.3491 11.9421 18.2276 11.9394C18.1097 11.9394 17.9819 11.9394 17.864 11.9394C17.864 11.9651 17.8296 11.9885 17.8345 12.0095C17.8608 12.3502 17.7618 12.6889 17.5544 12.9677C17.3358 13.321 17.0652 13.6428 16.751 13.9235C16.7011 13.9632 16.6486 13.9999 16.5937 14.0333L16.6208 14.0847C16.6774 14.0955 16.735 14.1018 16.7927 14.1034C17.1392 14.1034 17.4856 14.0684 17.8296 14.0707C18.0533 14.0753 18.2761 14.0988 18.4954 14.1408C18.7411 14.1875 18.8886 14.3254 18.891 14.4937C18.8935 14.6619 18.7755 14.7928 18.5397 14.8606C18.3038 14.9283 17.9991 14.9868 17.7043 15.0545C17.7011 15.1004 17.7011 15.1465 17.7043 15.1924C17.7426 15.397 17.6969 15.6078 17.5765 15.7813C17.3579 16.0898 17.122 16.3866 16.8886 16.688C16.8419 16.7488 16.7805 16.8025 16.6797 16.9077L17.6625 16.9684C17.8394 16.9801 18.0163 16.9848 18.1932 16.9988C18.277 17.0065 18.3595 17.0238 18.4389 17.0502C18.5394 17.0747 18.6292 17.1288 18.6954 17.2048C18.7616 17.2808 18.8009 17.3747 18.8075 17.4732C18.812 17.5772 18.7799 17.6797 18.7162 17.7643C18.6526 17.849 18.561 17.911 18.4561 17.9406C18.3125 17.9808 18.1653 18.0082 18.0163 18.0224C17.8972 18.0352 17.7775 18.0414 17.6576 18.0411C17.647 18.2695 17.6182 18.4968 17.5716 18.7211C17.501 18.9332 17.4036 19.1365 17.2817 19.3264C17.1638 19.5227 17.0188 19.705 16.8542 19.9363C18.9131 20.0158 20.9156 19.8802 22.9475 19.8335C22.9672 17.2629 22.9057 14.6923 23.1932 12.1217L22.9475 12.0937C22.6134 12.0586 22.2767 12.0306 21.9451 11.9838C21.8251 11.9663 21.7104 11.9249 21.6084 11.8623C21.543 11.826 21.4891 11.7734 21.4527 11.7101C21.4163 11.6469 21.3987 11.5754 21.4017 11.5034C21.4047 11.4313 21.4283 11.3614 21.4699 11.3011C21.5115 11.2409 21.5696 11.1925 21.6379 11.1613C21.7855 11.0865 21.9462 11.0382 22.1121 11.0187C22.4905 10.9696 22.8713 10.9369 23.2546 10.9019C23.4733 10.8808 23.6969 10.8645 23.9328 10.8458C23.955 10.6979 23.9673 10.5488 23.9696 10.3994C23.9646 9.95392 24.0309 9.51028 24.1662 9.08375C24.5056 7.79365 25.1129 6.58116 25.9524 5.51764C26.5779 4.73643 27.3646 4.08512 28.2644 3.60372C28.8197 3.3116 29.3627 2.99612 29.9131 2.69466C30.8658 2.15783 31.9173 1.79855 33.0113 1.63605C33.2054 1.61034 33.3995 1.60099 33.6133 1.5823C33.601 1.37198 33.5863 1.18035 33.5789 0.986388C33.5678 0.862755 33.5678 0.738454 33.5789 0.614821C33.5795 0.532496 33.5974 0.451114 33.6315 0.375437C33.6656 0.29976 33.7152 0.231306 33.7774 0.174079C33.8396 0.116852 33.9132 0.0720003 33.9939 0.0421474C34.0746 0.0122946 34.1607 -0.0019603 34.2472 0.000216529C34.3319 0.00464005 34.4149 0.0251345 34.4911 0.0604944C34.5674 0.0958542 34.6355 0.145365 34.6913 0.206115C34.7472 0.266864 34.7897 0.337626 34.8164 0.414236C34.8431 0.490846 34.8534 0.571758 34.8467 0.652212C34.833 0.926964 34.8035 1.20079 34.7582 1.47246C34.7582 1.50752 34.7411 1.54257 34.7263 1.61268L35.0162 1.66409C35.7392 1.76014 36.4537 1.90699 37.1538 2.10343C37.715 2.27546 38.2464 2.52507 38.7312 2.84422C39.2938 3.22514 39.8835 3.571 40.4658 3.92621C40.8652 4.17652 41.2139 4.49315 41.4953 4.86097C41.8393 5.29329 42.2103 5.70693 42.5788 6.12056C43.1302 6.76145 43.6003 7.4619 43.9793 8.20741C44.2604 8.78552 44.4142 9.41218 44.4314 10.0489C44.4486 10.2966 44.456 10.5466 44.4707 10.7967C44.4707 10.8832 44.4879 10.9673 44.5002 11.0701H44.8196C45.2103 11.0701 45.6034 11.0467 45.9965 11.0701C46.1818 11.0783 46.3636 11.1203 46.5321 11.194C46.5929 11.2141 46.647 11.249 46.6891 11.2952C46.7313 11.3414 46.76 11.3973 46.7724 11.4573C46.7849 11.5173 46.7806 11.5793 46.7599 11.6373C46.7393 11.6952 46.7032 11.747 46.655 11.7875C46.5809 11.874 46.4871 11.9434 46.3807 11.9904C46.2743 12.0373 46.158 12.0607 46.0407 12.0586C45.795 12.0586 45.5493 12.0726 45.284 12.0843C45.245 12.0897 45.2064 12.0975 45.1685 12.1077V12.5868C45.1685 13.8136 45.2005 15.0405 45.2005 16.2674C45.2005 17.0689 45.1636 17.8682 45.1636 18.6697C45.1636 19.0927 45.2103 19.518 45.2348 19.9363C45.7017 19.9644 46.139 20.0158 46.5739 20.0088C46.9781 20.0079 47.3715 20.1326 47.6943 20.364C47.7614 20.4134 47.8163 20.4763 47.8549 20.5482C47.8936 20.6201 47.9151 20.6992 47.9179 20.7799C47.9523 21.1258 47.9965 21.481 47.999 21.8175C47.999 22.5653 47.9719 23.3131 47.9719 24.0586C47.9719 24.8041 47.9916 25.5893 47.999 26.3534C48.0031 26.5314 47.9949 26.7094 47.9744 26.8863C47.9705 26.9929 47.9338 27.0961 47.8687 27.183C47.8049 27.2597 47.7621 27.3502 47.7441 27.4464C47.7261 27.5427 47.7335 27.6417 47.7655 27.7345C47.7877 27.8668 47.8 28.0003 47.8024 28.1342C47.8221 29.4942 47.8491 30.8543 47.8565 32.2167C47.8565 32.9178 47.8442 33.6189 47.8171 34.3199C47.7553 35.8578 47.798 37.398 47.9449 38.9306C47.994 39.4354 47.9867 39.9449 47.9916 40.452C48.013 41.368 47.9629 42.2842 47.8417 43.1931C47.8086 43.4317 47.7938 43.6723 47.7975 43.9129C47.7806 44.1976 47.6876 44.4735 47.5272 44.7145C47.508 44.7555 47.4746 44.7889 47.4326 44.8094C47.3906 44.8298 47.3424 44.8359 47.2963 44.8266C46.9081 44.7752 46.5199 44.7285 46.1316 44.6724C46.0224 44.6486 45.9155 44.6157 45.8122 44.5742L44.6206 44.1676C44.5839 44.1626 44.5467 44.1626 44.51 44.1676C44.5022 44.4498 44.5203 44.7321 44.5641 45.0112C44.6386 45.7102 44.6468 46.4141 44.5887 47.1145C44.5863 47.3475 44.5166 47.5755 44.3872 47.7735C44.1783 48.0656 43.8958 48.0796 43.6869 47.7898C43.5871 47.6484 43.5178 47.4896 43.483 47.3224C43.3601 46.62 43.3132 45.9074 43.343 45.1959C43.3577 44.7519 43.3577 44.3078 43.3675 43.8638C43.3765 43.8112 43.3663 43.7573 43.3386 43.7109C43.3109 43.6646 43.2673 43.6287 43.2152 43.6091C42.7631 43.3918 42.3209 43.1628 41.8737 42.9384C41.62 42.8055 41.3394 42.7258 41.0506 42.7047C40.9195 42.6992 40.7893 42.6804 40.6624 42.6486C40.1227 42.5166 39.5523 42.556 39.0383 42.7608C38.4142 42.9711 37.8098 43.2118 37.1858 43.4502C36.0912 43.8658 34.962 44.1934 33.8099 44.4294C33.114 44.5833 32.3902 44.5833 31.6944 44.4294C30.8492 44.2377 29.9966 44.0695 29.1661 43.8311C28.2133 43.569 27.2892 43.22 26.4069 42.7889C26.0346 42.6045 25.6436 42.4565 25.2399 42.3472C24.8106 42.2467 24.3621 42.2467 23.9328 42.3472C23.512 42.4333 23.1043 42.5691 22.719 42.7515C21.3185 43.4105 19.9033 44.0298 18.3652 44.3593C17.3442 44.6036 16.2726 44.5802 15.2645 44.2915C14.0065 43.9152 12.7289 43.6021 11.493 43.1628C10.7572 42.9257 9.99702 42.7635 9.22522 42.679C8.78816 42.6275 8.345 42.6489 7.91565 42.7421C6.86829 42.9353 5.84654 43.2378 4.86898 43.6442C4.78078 43.6674 4.70406 43.7196 4.65236 43.7914C4.60066 43.8632 4.57731 43.9501 4.58643 44.0368C4.58643 44.4457 4.52009 44.8523 4.50535 45.2613C4.48569 45.7591 4.4906 46.2568 4.47832 46.7546C4.47832 46.9883 4.45129 47.2336 4.43409 47.4743C4.42998 47.527 4.41841 47.5789 4.3997 47.6286L3.45867 47.6169ZM44.2938 18.8426L44.2447 17.9686C43.9007 17.9219 43.5838 18.006 43.2619 17.9196C43.372 17.789 43.5318 17.705 43.7066 17.6859C43.8737 17.6391 44.0432 17.6041 44.2226 17.5597L44.1636 16.8796C44.1112 16.8665 44.0578 16.8571 44.0039 16.8516C43.8823 16.8509 43.7609 16.8431 43.6403 16.8282C43.6067 16.8209 43.5751 16.8069 43.5476 16.7871C43.5201 16.7674 43.4972 16.7424 43.4806 16.7137C43.4437 16.6249 43.5223 16.5665 43.6059 16.5361C43.6773 16.5148 43.7504 16.4991 43.8245 16.4894C43.9302 16.4683 44.0383 16.452 44.1341 16.4356V15.6715C43.9646 15.5616 43.714 15.6434 43.6034 15.3981C43.6824 15.3565 43.7645 15.3205 43.8491 15.2906C43.944 15.2721 44.04 15.2596 44.1366 15.2532V14.1595C43.8638 14.073 43.5715 14.1595 43.2815 14.0216C43.5444 13.7879 43.8786 13.8393 44.1783 13.7459C44.2054 13.4514 44.2299 13.157 44.2545 12.8765C43.9572 12.8765 43.6869 12.8906 43.4167 12.8765C43.1464 12.8625 42.8639 12.9466 42.596 12.7714C42.6403 12.734 42.6648 12.6966 42.6919 12.6919L44.3503 12.4746L44.4118 12.0913C43.9156 12.0626 43.4178 12.0704 42.9228 12.1147C42.417 12.2065 41.9001 12.2309 41.3872 12.1872C41.1222 12.1336 40.8538 12.0961 40.5838 12.075C39.3553 12.0259 38.1268 11.9581 36.913 11.9628C35.7337 11.9628 34.5592 11.9067 33.3823 11.8506C32.3464 11.796 31.3073 11.8351 30.2792 11.9675C29.7237 12.0453 29.1622 12.0766 28.601 12.061C27.6772 12.0329 26.7509 12.0329 25.8271 12.0189H25.4536C25.4536 12.1872 25.4291 12.318 25.4192 12.4489C25.321 13.8884 25.348 15.3303 25.3431 16.7698C25.3649 17.7215 25.2992 18.6731 25.1465 19.6138C25.1428 19.6745 25.1428 19.7354 25.1465 19.7961C25.2546 19.7961 25.3455 19.7961 25.4364 19.7961C26.8295 19.8195 28.2227 19.8358 29.6133 19.8709C30.2276 19.8872 30.8418 19.9784 31.4585 19.9784C33.8246 19.9784 36.1907 19.9573 38.5543 19.962C40.2005 19.962 41.8442 20.0017 43.4879 20.0228C43.7582 20.0228 44.026 20.0228 44.284 20.0228V19.3568C44.0924 19.3568 43.9253 19.3568 43.7607 19.3334C43.5379 19.31 43.3168 19.2773 43.0973 19.2352C43.0725 19.2282 43.0501 19.2153 43.032 19.1977C43.014 19.1801 43.0009 19.1585 42.9941 19.1348C42.9979 19.1099 43.0083 19.0865 43.0241 19.0665C43.04 19.0464 43.061 19.0306 43.085 19.0202C43.2456 18.9719 43.4099 18.9352 43.5764 18.9104C43.8 18.88 44.0309 18.866 44.2938 18.8426ZM26.1662 10.778L26.5052 10.7967C27.3947 10.8201 28.2816 10.8388 29.1686 10.8668C29.9057 10.8902 30.6624 10.9392 31.4094 10.9556C32.3922 10.972 33.375 10.9556 34.3578 10.9766C35.1342 10.9907 35.9081 11.0421 36.6845 11.0538C37.4609 11.0654 38.2914 11.0538 39.0948 11.0538H40.6378C41.0776 11.0538 41.515 11.0351 41.9548 11.0538C42.2914 11.0538 42.6255 11.0958 42.9621 11.1168C43.0386 11.1154 43.1148 11.1099 43.1906 11.1005C43.1685 10.7079 43.1513 10.3387 43.1292 9.95541C43.0186 9.95541 42.9351 9.93905 42.854 9.93672C42.3209 9.93672 41.7877 9.91802 41.257 9.89699C41.0438 9.91401 40.8302 9.86833 40.6452 9.76612C41.4388 9.58151 42.2521 9.64694 43.1022 9.57216C43.0088 9.30342 42.9228 9.06038 42.8417 8.81734C42.8339 8.77387 42.8168 8.73238 42.7915 8.69545C42.7662 8.65851 42.7331 8.62691 42.6944 8.6026C42.6557 8.57828 42.6122 8.56178 42.5666 8.5541C42.5209 8.54642 42.4741 8.54773 42.429 8.55794C42.2616 8.57547 42.0927 8.57547 41.9253 8.55794C41.0786 8.48048 40.2254 8.49538 39.3823 8.60235C39.4069 8.54626 39.4364 8.49251 39.4806 8.47849C39.6215 8.43001 39.766 8.39173 39.913 8.36398C40.6666 8.22701 41.4371 8.19474 42.2005 8.26817C42.2938 8.26817 42.3921 8.26817 42.5494 8.26817C42.3233 7.92932 42.1243 7.65123 41.9474 7.36145C41.8885 7.2475 41.7949 7.15309 41.6788 7.09055C41.5626 7.02802 41.4293 7.00026 41.2963 7.01092C40.2791 7.01092 39.2594 6.96184 38.2423 6.9338C38.1759 6.9338 38.112 6.91277 37.9966 6.89641C38.1546 6.79997 38.3396 6.75111 38.5273 6.75619C39.3643 6.67753 40.2067 6.66659 41.0457 6.72348C41.1513 6.72348 41.257 6.72348 41.3798 6.72348C41.3653 6.68956 41.348 6.65675 41.3282 6.62533C41.0383 6.28648 40.7459 5.9523 40.4609 5.61111C40.4294 5.57363 40.3888 5.54403 40.3426 5.52489C40.2963 5.50575 40.2459 5.49764 40.1956 5.50128C39.112 5.46856 38.0285 5.43117 36.945 5.39612C36.886 5.39612 36.8295 5.39612 36.773 5.37742V5.32368C36.9449 5.26989 37.1251 5.24382 37.3061 5.24656H40.0727C40.0555 5.19748 40.0555 5.17411 40.0432 5.1671C39.5518 4.85162 39.0604 4.53848 38.569 4.23234C38.4936 4.19357 38.4091 4.17348 38.3233 4.17392C37.913 4.15756 37.5027 4.1412 37.0948 4.13887C36.1882 4.13887 35.2816 4.13887 34.375 4.12485L34.2275 4.11082V4.04773C34.353 4.0174 34.4801 3.99399 34.6084 3.97762C35.6321 3.88145 36.661 3.84477 37.6894 3.86779C37.7716 3.8659 37.8537 3.85966 37.9351 3.84909C37.6213 3.61339 37.2638 3.43582 36.8811 3.32563C36.243 3.12143 35.5842 2.98123 34.9155 2.90732C34.0923 2.77221 33.2481 2.80889 32.4413 3.01482C31.0699 3.40868 29.81 4.09254 28.7558 5.0152C28.4898 5.22413 28.2477 5.45912 28.0335 5.71627C27.5641 6.34954 27.1856 7.03957 26.9082 7.76807C26.6228 8.50247 26.4138 9.26169 26.2841 10.0349C26.23 10.2826 26.203 10.5163 26.1662 10.778ZM16.407 12.3601C16.1179 12.3144 15.8238 12.3058 15.5323 12.3344C15.2498 12.3344 14.9647 12.3087 14.6822 12.297V12.2362C15.3186 12.0353 16.0114 12.1124 16.6478 11.9114C12.7166 11.8039 8.78542 11.8974 4.79773 12.0843C4.8567 12.1988 4.89355 12.2876 4.94515 12.3694C5.2105 12.7971 5.48814 13.2201 5.74367 13.6547C5.76645 13.7065 5.80516 13.7505 5.85471 13.7809C5.90426 13.8114 5.96234 13.8268 6.02131 13.8253C6.34809 13.8253 6.67487 13.851 7.0041 13.8697C8.20803 13.9352 9.41195 14.0123 10.6183 14.066C11.6724 14.1104 12.7289 14.1315 13.7854 14.1618C14.0311 14.1618 14.2768 14.1782 14.5225 14.1618C14.6031 14.1653 14.6824 14.1412 14.7461 14.0941C14.8531 13.965 14.9508 13.8291 15.0385 13.6874H14.2178V13.6314C14.4917 13.527 14.7853 13.4777 15.0802 13.4865C15.4439 13.4865 15.5864 13.2645 15.7977 13.0191C15.2996 13.0359 14.8008 13.0265 14.3038 12.991C14.3656 12.952 14.4349 12.925 14.5077 12.9116C14.9697 12.8462 15.4291 12.7574 15.8935 12.7293C16.0082 12.7241 16.1187 12.6861 16.2103 12.6202C16.3019 12.5544 16.3705 12.4637 16.407 12.3601ZM5.38249 18.228C5.50005 18.6493 5.68572 19.0505 5.93286 19.4175C6.03471 19.555 6.1243 19.7004 6.20067 19.8522C6.32106 20.1303 6.31123 20.1303 6.6159 20.142C7.23015 20.163 7.84439 20.1677 8.4611 20.2167C9.17875 20.2743 9.90004 20.2782 10.6183 20.2284L14.4193 19.9714C14.665 19.955 14.923 19.9457 15.1417 19.934L15.7952 19.2189C15.2448 19.2189 14.7485 19.2913 14.208 19.2586C14.3676 19.1216 14.5709 19.0393 14.7854 19.0249C15.1638 18.9688 15.5446 18.9198 15.923 18.8754C16.0876 18.8567 16.1687 18.7795 16.1957 18.5949H14.6748C14.6993 18.5652 14.7297 18.5404 14.7642 18.522C14.7988 18.5035 14.8369 18.4918 14.8763 18.4874C15.3186 18.4313 15.7633 18.3729 16.2104 18.3355C16.2488 18.3382 16.2874 18.3331 16.3236 18.3207C16.3598 18.3083 16.3928 18.2888 16.4206 18.2634C16.4484 18.2381 16.4703 18.2075 16.4849 18.1737C16.4995 18.1398 16.5064 18.1034 16.5053 18.0668H16.2154C15.2055 18.0668 14.1982 18.0972 13.1883 18.0668C11.9599 18.0411 10.7314 18.0878 9.49058 18.1252C8.22031 18.1626 6.95005 18.186 5.67979 18.2164L5.38249 18.228ZM14.5471 16.438V16.3422C14.81 16.2978 15.0729 16.2393 15.3382 16.209C15.4671 16.1859 15.5897 16.1379 15.6983 16.068C15.8069 15.998 15.8993 15.9076 15.9697 15.8023H14.7657V15.7346C14.8616 15.7112 14.9549 15.6761 15.0507 15.6621C15.3652 15.6201 15.6797 15.571 15.9967 15.5476C16.1008 15.5472 16.2012 15.5106 16.279 15.4448C16.3568 15.379 16.4067 15.2884 16.4193 15.1901L16.1982 15.2088C15.434 15.2625 14.6699 15.342 13.9058 15.3607C13.0925 15.3794 12.2793 15.3607 11.466 15.3233C10.5643 15.2952 9.6552 15.2415 8.74857 15.1901L5.36038 15.0265C5.27438 15.0265 5.18839 15.0265 5.06554 15.0265C5.2449 15.3513 5.38741 15.6411 5.55694 15.9168C5.72647 16.1926 5.95251 16.5174 6.14662 16.8212C6.17828 16.8754 6.22647 16.9191 6.28481 16.9466C6.34316 16.9742 6.40891 16.9842 6.47339 16.9755C6.88371 16.9591 7.29403 16.9568 7.70189 16.9451C8.66257 16.924 9.62571 16.8913 10.5889 16.8773C11.8788 16.8586 13.1687 16.8563 14.4586 16.8423C14.5524 16.8633 14.6507 16.8576 14.7412 16.8259C14.8883 16.7237 15.0286 16.6129 15.1613 16.4941V16.4426L14.5471 16.438ZM16.5446 9.22864C16.466 9.22864 16.3947 9.2076 16.3235 9.2076C16.0065 9.2076 15.6871 9.2076 15.3702 9.2076C13.5839 9.28939 11.8001 9.22396 10.0164 9.16554C8.40704 9.11179 6.80017 9.06973 5.1933 9.02065C5.0852 9.02065 4.97463 9.02065 4.82721 9.02065C5.14662 9.69368 5.66996 10.1891 6.05571 10.7687C6.19821 10.7687 6.34809 10.7687 6.49551 10.7687C7.26209 10.7429 8.02621 10.7056 8.79279 10.6869C10.8223 10.6401 12.8493 10.5747 14.8788 10.6354C15.1466 10.6354 15.3996 10.6495 15.5815 10.4018C15.6232 10.348 15.7043 10.3223 15.7633 10.2779C15.8124 10.2359 15.8592 10.1914 15.9033 10.1447C15.5765 10.1073 15.2768 10.1611 14.9942 10.0652C15.1842 10.0292 15.3761 10.0035 15.5692 9.98813C15.7534 9.96943 15.9402 9.95074 16.122 9.92036C16.186 9.91274 16.2442 9.88153 16.2842 9.83344C16.3242 9.78536 16.3427 9.72425 16.3357 9.6633C16.1318 9.6633 15.9451 9.6633 15.7608 9.6633C15.5765 9.6633 15.3849 9.72639 15.2006 9.64227C15.2963 9.60636 15.3976 9.58583 15.5004 9.58151C15.778 9.54178 16.0557 9.50673 16.3333 9.47167C16.4733 9.44363 16.5569 9.38521 16.5446 9.22396V9.22864Z" fill="#FCFDF7"/>
<path d="M42.9351 34.9346C42.7742 34.9346 42.6198 34.8737 42.506 34.7655C42.3922 34.6572 42.3282 34.5104 42.3282 34.3573C42.3282 34.2043 42.3922 34.0574 42.506 33.9492C42.6198 33.8409 42.7742 33.7801 42.9351 33.7801C43.0961 33.7801 43.2504 33.8409 43.3642 33.9492C43.478 34.0574 43.542 34.2043 43.542 34.3573C43.542 34.5104 43.478 34.6572 43.3642 34.7655C43.2504 34.8737 43.0961 34.9346 42.9351 34.9346Z" fill="#FCFDF7"/>
<path d="M40.8934 37.643C40.8924 37.7553 40.8566 37.8648 40.7905 37.9578C40.7243 38.0508 40.6308 38.1231 40.5216 38.1657C40.4124 38.2084 40.2924 38.2194 40.1766 38.1975C40.0609 38.1755 39.9545 38.1215 39.8709 38.0423C39.7872 37.9631 39.73 37.8621 39.7065 37.7521C39.6829 37.6421 39.694 37.5279 39.7384 37.4238C39.7828 37.3198 39.8585 37.2306 39.956 37.1673C40.0535 37.104 40.1685 37.0695 40.2865 37.0681C40.4469 37.0687 40.6005 37.1294 40.7141 37.237C40.8277 37.3446 40.8921 37.4905 40.8934 37.643Z" fill="#FCFDF7"/>
<path d="M44.2889 37.5963C44.2893 37.6292 44.2827 37.6618 44.2696 37.6923C44.2565 37.7228 44.2372 37.7505 44.2127 37.7738C44.1882 37.797 44.1591 37.8155 44.127 37.8279C44.095 37.8404 44.0607 37.8466 44.0261 37.8463C43.9626 37.8415 43.903 37.8153 43.8579 37.7725C43.8129 37.7297 43.7854 37.673 43.7803 37.6126C43.7807 37.5795 43.7879 37.5467 43.8015 37.5162C43.8151 37.4857 43.8349 37.4581 43.8598 37.4348C43.8847 37.4116 43.9141 37.3933 43.9464 37.3809C43.9787 37.3685 44.0133 37.3623 44.0482 37.3626C44.1125 37.3638 44.1737 37.389 44.2187 37.4326C44.2637 37.4763 44.289 37.5351 44.2889 37.5963Z" fill="#FCFDF7"/>
<path d="M29.1686 14.1758C30.9917 14.2319 32.8124 14.2927 34.633 14.3464C35.6158 14.3768 36.6133 14.3932 37.6035 14.4212C37.9868 14.4212 38.3701 14.468 38.7533 14.4703C39.585 14.4777 40.4163 14.4347 41.2423 14.3418C41.5122 14.3259 41.7831 14.3368 42.0506 14.3745C42.1195 14.3735 42.1863 14.3968 42.238 14.44C42.2898 14.4832 42.3228 14.5431 42.3307 14.6082C42.339 14.671 42.3261 14.7348 42.2939 14.7902C42.2617 14.8456 42.2118 14.8899 42.1514 14.9166C41.8828 15.0827 41.5641 15.1599 41.2447 15.1363C40.2054 15.0101 39.1735 15.1363 38.1391 15.2064C37.805 15.2321 37.4683 15.2532 37.1317 15.2672C36.2374 15.3022 35.3381 15.37 34.4438 15.3536C33.66 15.3255 32.8784 15.2577 32.1023 15.1503C31.4253 15.0656 30.7433 15.0226 30.0605 15.0218C28.9876 15.0218 27.9131 15.0218 26.837 15.0218C26.6726 15.0172 26.5086 15.0047 26.3456 14.9844C26.2604 14.9744 26.1775 14.9515 26.0999 14.9166C26.0465 14.9008 25.9995 14.87 25.9649 14.8283C25.9302 14.7866 25.9096 14.736 25.9058 14.683C25.907 14.6309 25.9252 14.5805 25.9577 14.5387C25.9903 14.4969 26.0356 14.4656 26.0876 14.4493C26.2678 14.3768 26.4582 14.3295 26.6527 14.309C27.3234 14.2717 27.9967 14.2576 28.6674 14.2366C28.8369 14.2366 29.004 14.2366 29.1735 14.2366L29.1686 14.1758Z" fill="#FCFDF7"/>
</svg>
