<svg width="30" height="31" viewBox="0 0 30 31" fill="none" xmlns="http://www.w3.org/2000/svg">
<path fill-rule="evenodd" clip-rule="evenodd" d="M12.2841 6.36695C12.4089 6.62333 12.5191 6.88653 12.6143 7.15532C12.8271 7.31354 12.8626 7.6518 13.0072 7.87822C13.1162 8.19445 13.1607 8.52929 13.1382 8.86299C13.04 9.58044 12.3195 10.2761 12.8653 10.898C13.0564 10.8817 13.0673 11.0453 13.2583 11.029C13.8887 10.9771 14.0361 10.4506 14.3745 10.1097C14.4266 9.87635 14.519 9.6539 14.6474 9.45222C14.7104 8.95202 14.7323 8.44748 14.7128 7.94369C14.4127 6.77887 13.7031 6.03415 13.463 4.79295V3.08527C13.583 2.32691 13.8996 1.77042 13.9897 0.984777C14.2138 0.692136 14.3762 0.357136 14.4672 0L13.8614 0C13.7713 0.0190954 13.7359 0.0927491 13.5885 0.0654699C13.4057 0.278247 13.1382 0.403731 12.9963 0.657427C12.7534 0.807463 12.6961 1.143 12.4724 1.31213C12.3496 1.79497 12.1039 2.16051 12.0112 2.69245C11.8529 3.14529 11.8965 3.79998 11.8147 4.3292C11.8665 4.73839 11.9047 5.14757 11.9457 5.57859C12.1176 5.79136 12.1285 6.15145 12.2841 6.36695ZM8.21242 7.4172C8.36094 7.56545 8.47385 7.74547 8.54263 7.94369C9.08843 8.48927 9.72155 8.95029 10.1172 9.65136V10.5707C10.39 10.5506 10.6466 10.4335 10.8404 10.2406C10.9547 9.83832 10.9991 9.41939 10.9714 9.00212C10.8022 7.94641 9.97534 7.54541 9.52779 6.77068C9.4541 6.18193 9.4541 5.58629 9.52779 4.99754C9.64241 4.85023 9.68334 4.62927 9.80069 4.47105C9.83344 4.37557 9.8962 4.30738 9.93168 4.19826C9.9999 4.17098 10.1609 3.94456 9.93168 4.00185C9.93168 3.92547 9.82798 3.93092 9.73519 3.93638C9.64241 3.94184 9.60966 4.02913 9.4623 4.00185C8.99235 4.38595 8.62587 4.88135 8.39615 5.44303C8.16644 6.00471 8.08077 6.61487 8.14693 7.21806C8.22334 7.2317 8.21788 7.32445 8.21242 7.4172ZM17.933 8.00916C18.0328 8.48344 18.0767 8.96774 18.064 9.45222C18.0085 9.60995 17.9429 9.76394 17.8675 9.91324C17.8293 10.0796 17.5946 10.2324 17.7366 10.3715C18.0749 10.5461 18.3697 10.3142 18.6562 10.2406C19.1147 9.7838 19.3945 9.17803 19.4449 8.53292C19.3889 8.2972 19.3668 8.0547 19.3794 7.81275C19.3282 7.75097 19.29 7.67952 19.267 7.60266C19.244 7.5258 19.2368 7.44509 19.2457 7.36537C18.9282 6.81957 18.5773 6.2939 18.195 5.79136C18.0678 5.56568 17.9758 5.32191 17.9221 5.06847H17.7911C17.2699 5.22668 17.0816 5.71498 17.1334 6.43242C17.3463 7.01892 17.6956 7.45812 17.933 8.00916ZM28.9663 16.4657C28.7343 16.1929 28.4642 15.961 28.2431 15.6801C28.0248 15.6364 27.9238 15.4755 27.7191 15.4073C27.5636 15.279 27.2771 15.2818 27.127 15.1345C26.8008 15.0866 26.4714 15.0647 26.1418 15.069C25.9262 14.8753 25.435 15.129 25.2876 15.0035C25.2494 14.1224 25.1485 13.304 24.8292 12.7066C22.837 12.2674 20.4382 12.2374 18.195 12.0492C15.8454 11.9455 13.4548 11.8855 11.0369 11.8528C10.9523 11.8528 10.9469 11.9374 10.8404 11.9183C9.09934 11.9183 7.29276 11.8773 5.65537 11.9837C4.01799 12.0901 2.32875 12.1938 0.988824 12.6057C0.650431 12.9221 0.571291 13.4977 0.399365 13.9696C0.282019 14.5316 0.208337 15.1372 0.126468 15.7428C-0.0201394 17.0372 -0.0393342 18.3428 0.0691592 19.641C0.380262 22.0225 1.07615 24.0056 2.23597 25.5469C2.80486 26.308 3.4922 26.973 4.27178 27.5165C4.70569 27.762 5.06319 28.0839 5.58715 28.2394C5.96375 28.5394 6.51773 28.6649 6.96528 28.8968C9.19769 29.6846 11.5546 30.0608 13.9214 30.0071C14.9421 29.887 15.9272 29.7343 16.9424 29.6115C16.9424 29.5379 17.0079 29.5679 17.0734 29.546C17.7802 29.336 18.3915 28.9295 19.0437 28.6267C19.7096 28.0457 20.4273 27.5137 21.0795 26.9218C21.7318 26.3298 22.2858 25.6315 22.9189 25.0122C23.0526 24.8158 23.1208 24.5594 23.3119 24.4203C23.394 24.1757 23.5291 23.9521 23.7076 23.7656C24.258 23.9407 24.8373 24.0074 25.4132 23.962C25.7816 23.8911 26.0899 23.7601 26.4638 23.6892C27.1297 23.3018 27.8065 22.9281 28.2377 22.3089C28.7834 21.8124 29.13 21.1004 29.4848 20.3993C29.7127 19.0694 29.5319 17.7017 28.9663 16.4766V16.4657ZM22.5314 22.3198C22.0693 23.3312 21.4483 24.2623 20.692 25.0777C20.3387 25.4887 19.9426 25.8608 19.5104 26.188C19.1201 26.5644 18.5907 26.8045 18.195 27.1728C17.3982 27.3392 16.8305 27.7347 16.0937 27.9611C15.3569 28.1875 14.6255 27.9611 13.9924 28.1575H11.5636C11.1761 28.0839 10.7449 28.0566 10.3792 27.9611C10.1752 27.9644 9.97324 27.9195 9.78977 27.8302C9.60458 27.8414 9.42047 27.7947 9.26308 27.6965C8.47168 27.5929 7.87949 27.2873 7.16177 27.1073C7.0608 26.8809 6.65418 26.96 6.57231 26.7145C6.26666 26.6899 6.19844 26.4417 5.91463 26.3844C5.48618 26.0052 5.09593 25.566 4.66748 25.2032C4.52076 24.9223 4.34418 24.6579 4.14079 24.4148C3.98524 24.142 3.84879 23.8693 3.68232 23.6265C3.43126 23.0481 3.03556 22.609 2.76266 22.0525C2.76266 21.9761 2.76266 21.9352 2.69716 21.9215C2.28421 20.6276 2.06264 19.2803 2.03948 17.9224C2.03948 16.362 2.03948 14.8017 2.43518 13.6559C2.42836 13.6124 2.438 13.5679 2.46222 13.5311C2.48643 13.4943 2.52349 13.4678 2.56617 13.4568C6.15751 13.585 9.86618 13.5987 13.5994 13.5877C14.1452 13.6941 15.3814 13.6232 16.1592 13.7214C17.068 13.7214 17.9467 13.7732 18.7872 13.8523C20.4623 13.894 22.1313 14.0691 23.7785 14.3761C23.8904 17.5541 23.5902 20.3148 22.5314 22.3198ZM27.7164 19.6301C27.5718 20.5357 27.0424 21.0568 26.5348 21.5969C26.1855 21.7115 25.989 21.987 25.6151 22.0579C25.2407 22.22 24.8207 22.2432 24.4307 22.1234C24.7637 20.8576 25.1703 19.6683 25.2849 18.1843C26.1282 18.1843 27.0751 18.1024 27.5172 18.5116C27.7079 18.8553 27.7789 19.2526 27.7191 19.641L27.7164 19.6301Z" fill="#FCFDF7"/>
</svg>
