<svg width="59" height="46" viewBox="0 0 59 46" fill="none" xmlns="http://www.w3.org/2000/svg">
<path d="M56.0499 0.0201813C55.7986 -0.0067271 55.5453 -0.0067271 55.294 0.0201813H3.66899C3.33812 0.0254788 3.00944 0.0770303 2.6918 0.173447L29.334 27.7422L56.0499 0.0201813Z" fill="#FCFDF7"/>
<path d="M58.7788 2.68314L31.9337 30.4626C31.2429 31.1763 30.3082 31.5769 29.3341 31.5769C28.3599 31.5769 27.4253 31.1763 26.7344 30.4626L0.129063 2.89388C0.0472727 3.20624 0.00390633 3.52811 0 3.8518V42.1683C0 43.1846 0.388503 44.1592 1.08004 44.8777C1.77158 45.5963 2.70951 46 3.6875 46H55.3125C56.2905 46 57.2284 45.5963 57.92 44.8777C58.6115 44.1592 59 43.1846 59 42.1683V3.8518C58.9853 3.45264 58.9107 3.05833 58.7788 2.68314ZM6.21344 42.1683H3.65063V39.4287L17.0547 25.6156L19.6544 28.3169L6.21344 42.1683ZM55.2756 42.1683H52.6944L39.2534 28.3169L41.8531 25.6156L55.2572 39.4287L55.2756 42.1683Z" fill="#FCFDF7"/>
</svg>
