<svg width="62" height="47" viewBox="0 0 62 47" fill="none" xmlns="http://www.w3.org/2000/svg">
<path d="M61.0985 3.17692C61.2313 3.41604 61.3345 3.67038 61.4058 3.93434C61.4684 4.48199 61.4971 5.03295 61.4919 5.58411C61.4673 8.87138 61.3597 12.1586 61.4089 15.4428C61.4642 19.279 61.664 23.109 61.7715 26.9513C61.8361 29.242 61.8361 31.5511 61.8822 33.8295C61.9037 34.9794 62.0235 36.1324 61.9959 37.2823C61.9529 39.0333 61.8146 40.7812 61.7254 42.5321C61.7109 43.1364 61.5713 43.7311 61.3153 44.2788C61.0593 44.8266 60.6925 45.3156 60.238 45.7151C59.7754 46.1215 59.2364 46.432 58.6523 46.6283C58.0682 46.8247 57.4508 46.9031 56.836 46.8589C53.3633 46.6842 49.8906 46.5186 46.4149 46.4388C43.9871 46.3836 41.5531 46.5002 39.1222 46.491C36.3072 46.491 33.4952 46.3775 30.6802 46.3744C28.2217 46.3744 25.7631 46.4194 23.3046 46.5094C21.5744 46.5707 19.8503 46.7976 18.1201 46.862C15.7026 46.954 13.2819 47 10.8582 47C8.46421 47 6.0702 46.9264 3.6762 46.862C3.41744 46.8433 3.16826 46.7565 2.954 46.6106C1.3621 45.5771 0.3879 44.1574 0.369461 42.2132C0.354095 40.8149 0.409413 39.4197 0.409413 38.0244C0.409413 36.3317 0.372535 34.6513 0.360242 32.9494C0.360242 30.4717 0.360242 27.9939 0.320291 25.5162C0.231168 20.9809 0.0621436 16.4456 0.00375326 11.9103C-0.0239053 9.41108 0.108241 6.90883 0.172778 4.40658C0.172778 4.0386 0.197363 3.67369 0.221949 3.30572C0.240388 2.99907 0.375608 2.85801 0.676779 3.02667C0.92932 3.14824 1.16572 3.30069 1.38054 3.48051C3.38425 5.39706 5.4064 7.30134 7.37938 9.26082C8.34155 10.228 9.24464 11.252 10.0838 12.3273C11.4948 14.055 13.0414 15.668 14.7089 17.1509C16.3131 18.6351 17.9327 20.1039 19.4846 21.6402C21.0366 23.1765 22.481 24.7527 23.9745 26.3288C24.4079 26.7919 24.7766 27.3193 25.2038 27.7946C26.1657 28.8587 27.103 29.9412 28.1295 30.95C28.7596 31.494 29.4328 31.9862 30.1424 32.4219C30.252 32.4975 30.3847 32.5322 30.5173 32.5201C31.4139 32.4265 32.2607 32.0628 32.9451 31.4775C33.5598 30.9163 34.1406 30.3183 34.7429 29.7418C35.3453 29.1653 35.8647 28.641 36.4639 28.135C38.3143 26.5401 40.0441 24.811 41.6392 22.9619C41.7191 22.8699 41.799 22.7748 41.885 22.6859C43.1911 21.3581 44.5034 20.0334 45.8064 18.6994C46.295 18.1996 46.7529 17.6691 47.2354 17.1662C48.0621 16.2953 48.8919 15.4244 49.737 14.5689C51.2951 12.9651 52.8624 11.346 54.4758 9.79439C55.8618 8.4574 57.34 7.21854 58.7199 5.87543C59.4912 5.12721 60.1458 4.25632 60.8527 3.44064L61.0985 3.17692ZM57.9823 42.6425C57.9563 41.8777 57.7766 41.1258 57.4537 40.4316C57.38 40.2783 57.3615 40.1004 57.2878 39.9471C57.172 39.6536 57.0258 39.373 56.8514 39.1099C56.2718 38.3788 55.5981 37.7272 54.8477 37.1719C54.3388 36.7664 53.8535 36.3323 53.3941 35.8717C51.0687 33.5841 48.7454 31.2935 46.4241 28.9998C46.1752 28.7544 45.9201 28.5183 45.7449 28.3527L43.2864 30.6894C43.3355 30.7568 43.4216 30.8611 43.4954 30.9715C44.1592 31.9589 45.0596 32.7194 45.8986 33.5473C47.1278 34.7739 48.2987 36.0741 49.5526 37.2823C51.1937 38.8646 52.8993 40.3825 54.5711 41.9372C54.8863 42.2347 55.2966 42.4117 55.7297 42.4371C56.4734 42.5015 57.2171 42.572 57.9823 42.6425ZM3.71615 43.3693C4.02347 43.3539 4.25088 43.3478 4.48752 43.3264C5.50056 43.2536 6.44779 42.7985 7.1366 42.0538C8.67319 40.4071 10.2098 38.7573 11.7709 37.1229C12.6253 36.2274 13.496 35.3453 14.3831 34.4765C15.72 33.1671 17.0753 31.8761 18.4397 30.5637C17.6899 29.8461 16.9769 29.1592 16.2455 28.4877C16.1871 28.4575 16.1223 28.4418 16.0565 28.4418C15.9907 28.4418 15.9259 28.4575 15.8675 28.4877C15.574 28.6886 15.2918 28.9057 15.0224 29.1377C13.2566 30.6432 11.5828 32.2529 10.01 33.9583C8.16611 35.9055 6.3683 37.8772 4.5582 39.8459C4.43776 39.9985 4.35747 40.1788 4.32464 40.3703C4.11874 41.3423 3.93127 42.3175 3.71615 43.3693Z" fill="#FCFDF7"/>
<path d="M16.7745 0.26685C19.9215 0.26685 23.0746 0.42324 26.2092 0.236185C33.2253 -0.180856 40.2167 0.070595 47.2205 0.122725C49.1628 0.122725 51.105 0.0736614 53.0595 0.150323C54.885 0.220853 56.7074 0.42324 58.5329 0.570431C58.6551 0.580708 58.7746 0.611824 58.8863 0.662426C59.2704 0.843348 59.295 1.1408 59 1.42905C58.1579 2.25086 57.3374 3.09721 56.4923 3.91596C55.9453 4.44646 55.3706 4.9463 54.8113 5.4492C52.9674 7.12963 51.1081 8.78247 49.4516 10.6622C48.7202 11.4871 47.8321 12.1679 47.0884 12.9774C45.2445 14.9982 43.1086 16.7339 41.1479 18.6412C39.6967 20.0024 38.3442 21.4647 37.1005 23.0171C36.5597 23.7162 35.8344 24.2774 35.2044 24.9091C34.5744 25.5408 33.8768 26.2491 33.2253 26.9299C32.7581 27.4144 32.3279 27.9388 31.8485 28.4079C31.3691 28.8771 30.7145 28.9016 30.3119 28.2945C29 26.9299 28.0685 25.9088 26.8638 24.7956C26.6548 24.6055 26.4581 24.4001 26.2492 24.2038C25.2043 23.1888 24.1901 22.1554 23.136 21.1588C20.912 19.1177 17.8809 15.8497 17.0313 15C16.1816 14.1503 15.1428 13.189 14.4144 12.3273C13.4279 11.1559 12.5313 10.356 11.2766 9.10138C10.022 7.84675 7.82546 6.41208 6.39028 4.74698C6.08296 4.39433 5.82174 4.00489 5.51443 3.65531C4.93052 2.98988 4.3374 2.33979 3.75042 1.6805C3.54452 1.44744 3.16037 1.22666 3.32018 0.92001C3.40955 0.810317 3.52005 0.719609 3.64515 0.653247C3.77025 0.586884 3.9074 0.546212 4.04852 0.533634C5.03755 0.350222 6.03737 0.230382 7.04179 0.174855C9.31595 0.122725 11.5901 0.15339 13.8642 0.150323H16.7745V0.26685Z" fill="#FCFDF7"/>
</svg>
