<svg width="54" height="54" viewBox="0 0 54 54" fill="none" xmlns="http://www.w3.org/2000/svg">
<path d="M53.6856 19.1816C53.7592 22.5254 53.765 25.8808 53.9268 29.207C54.0915 32.609 53.9268 36.0081 53.9268 39.4014C53.9268 41.6849 53.8503 43.9655 53.7886 46.2461C53.7393 48.039 53.1751 49.7808 52.1622 51.2676C51.8379 51.7543 51.3975 52.1545 50.8799 52.4326C49.4123 53.2152 47.7863 53.6621 46.1213 53.7404C42.7774 53.9414 39.4247 54.1191 36.0719 53.8977C35.9315 53.8775 35.7888 53.8775 35.6484 53.8977C35.0161 54.0463 34.2426 53.254 34.2249 52.6744C34.2102 52.1618 34.1426 51.6521 34.1191 51.1423C33.9397 47.2306 33.7456 43.3218 33.5985 39.4101C33.5681 38.4207 33.6143 37.4304 33.7367 36.4479C33.9132 34.9566 34.8573 34.2343 36.366 34.3566C37.2924 34.4294 38.213 34.5489 39.1394 34.6304C39.3738 34.6523 39.6102 34.6435 39.8423 34.6042C40.4746 34.4935 40.9393 34.2081 41.0981 33.5149C41.504 31.7673 41.9451 30.0197 42.3716 28.2546C42.39 28.1586 42.3989 28.061 42.398 27.9633C42.398 27.5847 42.2451 27.4274 41.8686 27.4419C41.1275 27.4769 40.3981 27.5672 39.6482 27.5468C38.3806 27.5118 37.1101 27.4623 35.8513 27.3167C34.5367 27.1652 33.9838 26.5332 33.8573 25.2283C33.7185 24.0701 33.7462 22.8982 33.9397 21.7477C34.17 20.6313 34.7293 19.6077 35.547 18.8062C36.3647 18.0047 37.404 17.4613 38.5335 17.2447C39.3453 17.1107 40.1629 17 40.9805 16.9126C41.2369 16.9032 41.4831 16.811 41.6817 16.6501C41.8803 16.4892 42.0203 16.2684 42.0804 16.0214C42.5892 14.5213 42.4774 13.0388 42.1069 11.5446C42.09 11.422 42.0341 11.308 41.9474 11.219C41.8607 11.1299 41.7476 11.0706 41.6245 11.0494C40.7515 10.8644 39.8674 10.735 38.9776 10.6621C37.9314 10.65 36.8856 10.7123 35.8484 10.8485C35.3102 10.9139 34.7849 11.0582 34.2897 11.2766C33.3103 11.699 32.3515 12.1708 31.4045 12.6631C30.7163 13.0449 30.1436 13.602 29.7458 14.2767C29.2062 15.0965 28.7095 15.9433 28.2576 16.8136C27.7623 17.865 27.491 19.0063 27.4606 20.1661C27.4106 21.0836 27.49 22.0069 27.4606 22.9244C27.4312 23.8419 27.343 24.7623 27.2312 25.671C27.214 26.0156 27.0714 26.3424 26.8297 26.5908C26.588 26.8393 26.2636 26.9927 25.9166 27.0225C24.6931 27.1827 23.4667 27.3138 22.2374 27.4245C21.7609 27.4711 21.5992 27.5992 21.5962 28.0623C21.5962 29.4371 21.5962 30.8109 21.5962 32.1838C21.6016 32.3471 21.6203 32.5098 21.6521 32.6702C21.7903 33.5964 22.005 33.8207 22.955 33.9081C23.4697 33.9547 23.9902 33.9081 24.5078 33.9314C25.0228 33.9398 25.5362 33.9895 26.043 34.0799C26.3743 34.1305 26.6789 34.2892 26.9086 34.5309C27.1383 34.7726 27.2798 35.0834 27.3106 35.4139C27.4475 36.3468 27.5202 37.2878 27.5283 38.2305C27.4871 41.0121 27.3694 43.7966 27.3047 46.5782C27.2665 48.2209 27.2753 49.8637 27.2489 51.5035C27.2432 51.8418 27.2078 52.179 27.143 52.5113C26.9959 53.2424 26.9489 53.3152 26.1195 53.4229C25.4061 53.4915 24.689 53.5149 23.9726 53.4929C19.7728 53.4929 15.573 53.5162 11.3762 53.4929C9.38647 53.5319 7.39936 53.3304 5.45889 52.8928C2.55905 52.1705 0.920907 50.152 0.423876 47.2044C0.360163 46.7901 0.334569 46.3709 0.34741 45.952C0.415053 43.1063 0.247415 40.2723 0.14448 37.4295C-0.0613913 31.7847 -0.0231581 26.1312 0.109188 20.4836C0.159185 18.3865 0.138598 16.2893 0.0827184 14.1922C-0.0381123 11.3329 0.345048 8.47455 1.21501 5.74548C1.5256 4.93094 1.9198 4.15014 2.39141 3.41534C2.79752 2.79324 3.39436 2.31649 4.09426 2.05513C5.72064 1.32696 7.44996 1.10268 9.19986 0.945399C13.3732 0.58714 17.57 0.49976 21.7551 0.310437C23.2256 0.243446 24.6961 0.0774234 26.193 0.0366461C28.5914 -0.0472987 30.9928 0.0130073 33.3838 0.217232C34.6308 0.333738 35.8984 0.258009 37.1542 0.298786C39.7541 0.383254 42.3539 0.421118 44.9449 0.610442C46.6921 0.741956 48.3869 1.26163 49.9035 2.13085C50.0976 2.23862 50.2858 2.36096 50.4917 2.45416C52.1534 3.21145 53.0004 4.56293 53.3562 6.28141C53.8239 8.54455 53.8739 10.8397 53.8621 13.1349C53.8621 15.1505 53.7827 17.1661 53.7415 19.1787L53.6856 19.1816Z" fill="#FCFDF7"/>
</svg>
