<svg width="54" height="54" viewBox="0 0 54 54" fill="none" xmlns="http://www.w3.org/2000/svg">
<path d="M51.84 0H2.16C0.96525 0 0 0.96525 0 2.16V51.84C0 53.0348 0.96525 54 2.16 54H51.84C53.0348 54 54 53.0348 54 51.84V2.16C54 0.96525 53.0348 0 51.84 0ZM45.603 15.7613H41.2898C37.908 15.7613 37.2533 17.3677 37.2533 19.7302V24.9345H45.3263L44.2733 33.0817H37.2533V54H28.836V33.0885H21.7958V24.9345H28.836V18.927C28.836 11.9542 33.0953 8.154 39.3188 8.154C42.3023 8.154 44.8605 8.37675 45.6098 8.478V15.7613H45.603Z" fill="#FCFDF7"/>
</svg>
