<svg width="30" height="30" viewBox="0 0 30 30" fill="none" xmlns="http://www.w3.org/2000/svg">
<path fill-rule="evenodd" clip-rule="evenodd" d="M29.6527 14.6128C29.5826 13.6689 29.5722 12.6682 29.5852 11.6415C29.2837 8.90299 27.9248 7.21953 26.2671 5.83087C25.8409 5.50762 25.4876 5.11197 24.9419 4.90768C24.749 4.71597 24.5239 4.55932 24.2767 4.44479C24.0792 4.24567 23.7077 4.2224 23.5466 3.9819C22.4943 3.51384 21.4679 3.00441 20.0986 2.85959C19.3847 2.80701 18.6671 2.87432 17.9757 3.05871C17.6691 2.85442 17.1209 2.85442 16.7155 2.72771C16.2894 1.23561 15.7385 -0.129783 13.6625 0.00985956C13.5767 0.00985956 13.5715 0.0951964 13.4624 0.0770947C12.7322 0.25294 12.2853 0.721 11.8722 1.20975C11.7207 1.40682 11.6079 1.63053 11.5396 1.86917C11.3239 1.98554 11.4616 2.45101 11.207 2.53118C8.74224 2.94259 6.39188 3.86504 4.30838 5.23868C3.82886 5.54169 3.38369 5.89544 2.98063 6.29375C2.78315 6.49287 2.49733 6.60407 2.38301 6.88853C2.16734 7.09023 1.89452 7.23763 1.78798 7.54795C1.34366 7.89964 1.15658 8.50734 0.792814 8.93402C0.709667 9.24951 0.532979 9.46932 0.460225 9.79257C0.381324 9.93485 0.336007 10.0931 0.327709 10.2555C0.171808 10.3201 0.267947 10.6382 0.127636 10.7183C-0.0425454 11.79 -0.0425454 12.8817 0.127636 13.9534C0.278557 14.2973 0.409556 14.6496 0.519987 15.0085C0.694077 15.3188 0.87856 15.6187 1.05265 15.9316C1.46511 16.5027 1.95575 17.0137 2.51033 17.4496C2.64544 17.4082 2.65323 17.5505 2.7104 17.5815C2.92391 17.67 3.14591 17.7367 3.37298 17.7806C3.41715 17.7806 3.50549 17.8944 3.57305 17.9125C3.8043 17.9694 3.94462 17.8349 4.09272 17.9797C4.21225 18.6935 4.61239 19.2572 4.89042 19.8261C5.16844 20.395 5.48804 20.982 5.75307 21.6104C5.95574 22.0009 6.07526 22.4767 6.27274 22.8646C6.8869 24.7051 7.39612 26.5786 7.79797 28.4762C8.14615 28.7037 8.12536 29.2959 8.59307 29.4019C8.97503 29.6605 9.63241 29.6605 10.1859 29.7329C10.7393 29.8053 11.3031 29.8959 11.8462 29.9915C13.5507 30.0484 15.2578 29.7924 16.887 29.9915C17.7193 29.8282 18.5611 29.7177 19.4074 29.6605C19.6792 29.5289 19.9705 29.4416 20.2701 29.4019C20.5039 29.2364 20.9456 29.2804 21.2003 29.1433C22.0058 28.6468 22.4631 27.8038 22.9905 27.0306C23.9649 24.3231 24.76 21.4372 25.8487 18.8409C27.2882 18.7788 28.1015 18.0909 28.8342 17.3229C28.9745 17.0229 29.1149 16.723 29.2318 16.3997C29.2837 16.229 29.2993 16.0247 29.4319 15.9368C29.4216 15.755 29.4679 15.5744 29.5644 15.4196C29.541 15.0757 29.6475 14.8947 29.6527 14.6128ZM15.1227 1.27698C15.1643 1.27698 15.2293 1.43473 15.3826 1.40887C15.5424 1.57268 15.6615 1.77137 15.7305 1.98912C15.7996 2.20686 15.8165 2.43764 15.7801 2.66306C15.6785 2.8431 15.52 2.98476 15.3293 3.06611C15.1386 3.14746 14.9263 3.16394 14.7252 3.11302C14.5166 2.95051 14.3526 2.73834 14.2481 2.4961C14.1437 2.25386 14.1022 1.98933 14.1276 1.72694C14.2193 1.55231 14.3671 1.41319 14.5474 1.33167C14.7277 1.25015 14.9302 1.23091 15.1227 1.27698V1.27698ZM23.4141 21.0855C23.3049 22.0319 22.8944 22.6733 22.619 23.462C22.4883 23.8329 22.3139 24.1871 22.0993 24.517C21.9876 24.9075 21.8316 25.284 21.6342 25.6394C21.4577 26.4094 21.039 27.1033 20.439 27.6202C17.1494 27.8245 13.756 27.9228 10.3548 28.0184C10.1823 27.5678 10.0493 27.1032 9.9572 26.6298C9.76233 26.2315 9.72075 25.6781 9.4921 25.3109C9.29202 24.3438 8.88408 23.5835 8.62944 22.6681C8.41638 22.2879 8.28386 21.8276 8.10977 21.4139C7.93568 21.0001 7.73561 20.6381 7.5901 20.2269C7.44719 20.0588 7.4316 19.7692 7.25751 19.6322C7.21854 19.3865 6.99768 19.3089 6.99768 19.0374C6.79501 18.9521 6.8028 18.6598 6.60013 18.5745C6.58454 18.303 6.30652 18.2952 6.3403 17.9823C7.68884 17.672 8.62425 16.9479 9.52328 16.198C10.942 16.5911 11.9527 17.7677 13.8625 17.853C14.3315 17.834 14.7914 17.7188 15.2135 17.5145C15.6356 17.3103 16.0107 17.0214 16.3154 16.6661C16.6194 16.7178 16.6661 17.0229 16.913 17.1289C17.0845 17.31 17.3287 17.4186 17.5106 17.5893C17.7427 17.7228 17.9872 17.8336 18.2407 17.9203C18.3941 18.1194 18.7916 18.078 18.9709 18.2513C19.3889 18.3027 19.81 18.3243 20.2311 18.3159C20.8911 18.0573 21.3198 17.5944 21.7563 17.1289C22.0473 17.2143 22.1747 17.46 22.3539 17.6461C22.5732 17.774 22.7742 17.9305 22.9516 18.1116C23.4063 18.2513 23.7311 18.5202 24.2118 18.6288C23.9727 19.4822 23.6453 20.2295 23.4141 21.0855ZM28.3899 13.4905C28.3483 13.8887 28.2886 14.2663 28.2574 14.68C27.7637 15.5282 27.4233 16.5342 26.5347 16.9919C26.4386 16.9919 26.345 16.9919 26.3346 17.0565H25.2719C24.9271 16.9898 24.5926 16.8785 24.2767 16.7255C23.9519 16.6118 23.7389 16.3816 23.4141 16.2652C23.0893 15.9058 22.7645 15.5463 22.4189 15.2076C22.0317 15.174 22.0863 15.58 21.8265 15.6705C21.7044 15.9006 21.3951 15.9472 21.3068 16.1877C20.8807 16.379 20.5273 16.6531 20.1142 16.8471H19.3009C18.0978 16.5704 17.4612 15.7299 16.583 15.1326C16.3883 14.8266 16.1657 14.5392 15.9178 14.274C15.7058 14.3857 15.5408 14.5691 15.4527 14.7912C15.4175 15.0706 15.4889 15.353 15.6528 15.5825C15.2994 15.9575 14.7953 16.1825 14.325 16.4411C14.1873 16.4126 14.1509 16.4876 14.0652 16.5083C12.3503 16.5083 11.6175 15.5541 10.217 15.2541C10.2482 14.9748 10.4769 14.8973 10.4171 14.5275C10.295 14.2689 10.1573 14.0413 9.75193 14.0646C9.69934 14.0517 9.64456 14.0503 9.59137 14.0605C9.53818 14.0707 9.48786 14.0923 9.44388 14.1238C9.3999 14.1553 9.36332 14.1959 9.33665 14.2428C9.30998 14.2897 9.29387 14.3419 9.28943 14.3956C9.12833 14.499 9.06857 14.7033 8.89188 14.7912C8.0734 15.3084 7.10681 15.7015 6.23636 16.1773C5.78945 16.2601 5.21001 16.2109 4.77609 16.3092C4.47029 16.2532 4.15914 16.2315 3.84848 16.2445C3.84848 16.1204 3.62502 16.2032 3.58864 16.1127C3.51348 16.0588 3.42081 16.0348 3.32881 16.0454C2.85331 15.5929 2.59087 14.9283 2.20112 14.3956C2.11538 13.6638 1.85554 13.1026 1.68145 12.4794C1.65044 11.5481 1.73774 10.6167 1.94129 9.70723C3.0274 7.68759 4.82286 6.29375 6.98209 5.28264C7.20035 5.1792 7.4342 5.10938 7.64467 5.02405C7.67845 5.01112 7.7538 4.89992 7.77978 4.89216C7.80577 4.8844 7.92009 4.91544 7.97726 4.89216C8.03442 4.86889 8.08639 4.76804 8.10977 4.76028C8.13316 4.75252 8.25268 4.78097 8.30985 4.76028C8.36701 4.73959 8.40859 4.64132 8.44236 4.62839C8.47614 4.61546 8.5359 4.62839 8.57488 4.62839C8.61385 4.62839 8.96723 4.46289 9.09455 4.42927C9.45832 4.33877 9.9624 4.15258 10.4223 4.03362C10.6484 3.97414 10.7549 3.95346 11.0199 3.90174C11.1046 3.87233 11.1915 3.84984 11.2798 3.8345C11.5604 3.79571 11.5864 4.01293 11.6773 4.16551C11.7683 4.31808 11.9164 4.41117 11.9371 4.62839C12.2304 4.87021 12.4969 5.14241 12.7322 5.44039C12.9887 5.54514 13.2327 5.67783 13.4598 5.83604C13.6939 5.98502 13.9378 6.11807 14.1899 6.23428C15.4085 6.47477 16.1101 5.7507 16.648 5.10421C16.7779 4.81717 16.8091 4.42927 17.0455 4.24826C17.799 4.16033 18.0303 4.57409 18.5707 4.76545C19.054 4.94388 19.3736 5.28264 19.9661 5.36022C20.1349 5.26454 20.3402 5.20506 20.3636 4.96457C20.5065 4.78872 20.2934 4.54306 20.2311 4.3698C20.1817 4.23791 19.8439 4.05689 19.9713 3.97156C21.312 4.13447 22.2448 4.70339 23.2218 5.22834C24.1665 5.75311 25.0397 6.39622 25.8201 7.14195C26.6385 7.84385 27.3141 8.69534 27.8105 9.65034C28.2737 10.8754 28.4712 12.1841 28.3899 13.4905V13.4905ZM10.2014 7.80137C10.3173 7.69214 10.452 7.60455 10.599 7.54278C10.6418 7.4002 10.7095 7.26627 10.7991 7.14712V6.49287C10.7211 6.47994 10.7263 6.38685 10.7341 6.29375C10.5582 6.05378 10.3355 5.8515 10.0793 5.69898C9.8013 5.73777 9.54406 5.64985 9.28423 5.69898C9.02439 5.74812 8.69181 5.99378 8.68661 6.09722C8.68141 6.20066 8.63464 6.13084 8.61905 6.16187C8.4914 6.55285 8.5155 6.97724 8.68661 7.35141C8.87369 7.49623 9.15951 7.54019 9.34919 7.67983C9.53887 7.81947 9.87406 7.81947 10.2118 7.81172L10.2014 7.80137ZM9.09455 6.95318C9.02439 6.26531 10.0897 6.29117 10.0248 6.95318C10.0248 7.15488 9.88445 7.21177 9.82469 7.35141C9.38297 7.40572 9.15691 7.25056 9.09455 6.95318ZM24.165 7.1523C23.9623 7.02558 23.8324 6.82388 23.6453 6.68941C22.7541 6.617 22.4994 7.18074 22.2526 7.74707C22.2512 7.97779 22.3046 8.20558 22.4084 8.41186C22.5123 8.61814 22.6637 8.79706 22.8502 8.93402C23.874 8.98574 24.2507 8.39356 24.2429 7.41606C24.113 7.40313 24.1494 7.25056 24.1442 7.1523H24.165ZM10.5444 8.80214C10.004 8.62112 9.62721 8.98574 9.41675 9.31933C9.29722 10.1572 9.90264 10.5735 10.6769 10.3098C10.7913 10.1741 10.8739 10.0149 10.9188 9.84364C10.9638 9.67236 10.9699 9.49327 10.9368 9.31933C10.8152 9.14018 10.6843 8.96754 10.5444 8.80214V8.80214ZM5.36851 10.8502C5.60048 10.919 5.8447 10.9369 6.08427 10.9025C6.32385 10.8681 6.55305 10.7823 6.75603 10.6511C6.74958 10.6078 6.75959 10.5637 6.78409 10.5273C6.8086 10.491 6.84585 10.465 6.88855 10.4546C6.88855 10.377 6.87556 10.2658 6.95351 10.2555C6.98502 10.015 6.96012 9.77056 6.88078 9.54129C6.80144 9.31202 6.6698 9.10417 6.4962 8.93402C5.31135 8.48924 4.71113 10.0641 5.36851 10.8502ZM6.23636 10.1908C5.93235 10.2917 5.77386 10.152 5.57378 9.99168C5.41788 9.34778 6.09345 9.17193 6.36888 9.5288C6.41081 9.6405 6.42062 9.76162 6.39722 9.87856C6.37381 9.9955 6.3181 10.1036 6.23636 10.1908V10.1908ZM19.5061 9.5288C19.4282 9.43053 19.2463 9.42794 19.1736 9.33226C18.0693 9.33226 18.1836 11.2252 19.4334 10.9821C19.4542 10.8476 19.6127 10.8502 19.6932 10.783C19.7828 10.4817 19.7828 10.1611 19.6932 9.8598C19.5841 9.80032 19.5789 9.62965 19.501 9.5288H19.5061ZM16.3206 10.7183C15.6814 10.5037 14.9954 10.7442 15.1929 11.5769C15.3956 11.9027 15.5567 12.2725 16.0555 12.3035C16.1465 12.2829 16.1829 12.2079 16.3154 12.2363C16.7103 11.9906 16.6558 10.9795 16.3154 10.7183H16.3206ZM12.2697 23.7257C12.2947 23.39 12.2495 23.0528 12.1372 22.7353C12.1892 22.5052 12.0385 22.4767 12.0697 22.2724C11.9891 22.1561 12.0697 21.8897 11.9371 21.8095C11.9017 21.4962 11.8355 21.187 11.7397 20.8864C11.7496 20.7422 11.702 20.6001 11.6072 20.4907C11.6066 20.3269 11.5598 20.1665 11.472 20.0278C11.472 19.6684 11.2122 19.5287 11.2122 19.1693C11.0095 18.9753 10.9913 18.5978 10.5496 18.6521H10.4821C10.3059 18.7632 10.1674 18.9245 10.0845 19.115C10.1001 20.408 10.4899 21.3079 10.6821 22.4147C10.7315 23.0249 10.9134 23.5034 10.942 24.1317C11.0745 24.3309 11.0355 24.7007 11.2018 24.8584C11.2153 24.9859 11.276 25.1039 11.372 25.1895C11.4681 25.275 11.5926 25.322 11.7215 25.3213C12.0229 25.2463 12.2723 25.1196 12.2412 24.7265C12.3893 24.6981 12.2671 24.4007 12.3061 24.2636C12.2957 24.0955 12.4178 23.7749 12.2697 23.7257ZM20.5611 19.764C20.4649 19.7977 20.3948 19.8623 20.3012 19.8959C19.6594 21.0622 19.3347 22.5414 18.9085 23.9249C18.8903 24.3464 18.8202 24.6282 19.1086 24.8481C19.1606 24.8636 19.2385 24.8481 19.2411 24.9127C19.7608 24.8868 19.8283 24.3955 20.0362 24.0567C20.1739 23.6197 20.2727 23.1439 20.4338 22.7353C20.6104 21.7863 21.0366 21.0906 21.0989 20.0278C20.9145 19.9425 20.8573 19.7356 20.5611 19.764ZM16.1101 21.282C16.1595 21.0234 16.0296 20.9665 16.0425 20.7648C16.0425 20.3511 16.0062 19.9658 15.645 19.9063C15.5878 19.7123 15.4787 19.9916 15.3124 19.9063C15.0526 20.1649 15.0526 20.6821 14.9824 21.0958V22.1509C15.2241 23.0999 14.7616 24.7369 15.8451 24.8584C15.9975 24.8071 16.1343 24.7182 16.2426 24.5998C16.3933 24.53 16.2114 24.1266 16.3751 24.0826C16.2946 23.3456 16.2062 22.619 16.1751 21.8354C16.0347 21.7604 16.1569 21.4398 16.1101 21.282Z" fill="#FCFDF7"/>
</svg>
