<svg width="35" height="28" viewBox="0 0 35 28" fill="none" xmlns="http://www.w3.org/2000/svg">
<path fill-rule="evenodd" clip-rule="evenodd" d="M35 25.7895C34.5245 22.3209 34.9737 17.9252 34.367 14.5881C34.367 12.3215 34.437 11.2072 34.437 8.80904C34.437 6.71206 34.4925 4.49811 34.367 2.2549C34.3262 1.66997 34.4545 0.900791 34.297 0.424074C34.2765 0.379869 34.2465 0.340725 34.2092 0.309403C34.1719 0.27808 34.1282 0.255343 34.0812 0.242793C34.0342 0.230243 33.985 0.228186 33.9371 0.236769C33.8893 0.245351 33.8438 0.264364 33.8041 0.292465C33.562 0.292465 33.5386 0.0438697 33.314 0C33.2236 0 33.2149 0.090664 33.1011 0.0701915C32.5469 0.476717 32.3864 1.27807 32.1181 1.97414C31.8433 2.68866 31.6086 3.41804 31.4151 4.15885C31.0283 5.82253 30.8162 7.52223 30.7821 9.23018C30.8059 10.5662 31.0934 11.8843 31.6281 13.1083C31.6806 13.1083 31.7068 13.1668 31.6981 13.2486C31.8746 13.4741 32.0382 13.7094 32.1881 13.9535C32.3164 14.2226 32.6694 14.2694 32.6811 14.6583C32.3485 16.65 32.1502 18.7762 31.9081 20.8586C31.8352 21.9378 31.6164 22.8707 31.6164 24.0289C31.453 24.1488 31.5901 24.567 31.5435 24.8039C31.4093 24.9736 31.4997 25.3713 31.4735 25.6492C31.3398 26.161 31.3642 26.7015 31.5435 27.1992C32.2287 27.4986 32.978 27.6203 33.7224 27.5531C34.0227 27.3699 34.2851 27.1307 34.4954 26.8483C34.5286 26.6479 34.601 26.4561 34.7083 26.2838C34.7083 26.1844 34.8221 26.1639 34.8483 26.0732C35.0496 26.1229 34.8104 25.7369 35 25.7895ZM32.611 12.1899C32.548 11.822 32.429 11.4659 32.2581 11.1341C32.0889 10.2012 32.0568 9.12782 31.9664 8.1042C32.0795 5.62874 32.5532 3.1832 33.3724 0.845223C33.3957 0.751634 33.4949 0.734086 33.5124 0.634648C33.5649 0.634648 33.5882 0.663895 33.5824 0.70484C33.5036 1.51204 33.4395 2.38944 33.3724 3.3107C33.2207 5.41352 33.2557 7.8556 33.2324 10.2187C33.2324 10.6516 33.2061 11.0698 33.2324 11.4851V13.0352C32.8269 12.9591 32.8823 12.4122 32.611 12.1899V12.1899ZM33.594 23.3972C33.3964 23.4101 33.1997 23.3611 33.0311 23.2568C32.9319 22.9468 33.454 23.2568 33.454 23.0462C33.6903 22.9702 33.562 23.2626 33.594 23.3972ZM32.7511 26.0762H33.454C33.4278 26.2897 32.7306 26.4476 32.7511 26.0732V26.0762ZM32.8911 24.8069C32.8629 24.6626 32.8878 24.513 32.9611 24.3857C33.0748 24.3652 33.0836 24.45 33.174 24.4559C33.422 24.5144 33.594 24.2512 33.6641 24.5261C33.6086 24.8215 33.174 24.7367 32.8911 24.8039V24.8069ZM33.524 21.9904C33.3789 22.0191 33.2283 21.993 33.1011 21.9173C33.0369 21.581 33.4686 21.4932 33.6641 21.6248C33.594 21.7272 33.597 21.8939 33.524 21.9875V21.9904ZM33.6641 20.5076H33.314C33.2586 20.2854 33.1973 19.5191 33.6641 19.5922V20.5076ZM33.524 17.3373C33.4978 16.8898 33.6495 16.6178 33.594 16.1411C33.6582 16.1704 33.7195 16.2025 33.7341 16.2815C33.6553 16.6208 33.9266 17.3168 33.524 17.3344V17.3373ZM5.06084 21.6424C5.00834 20.9697 4.95875 20.2181 4.92083 19.5951C4.92083 19.4635 4.85666 19.3524 4.85083 19.2442C4.83041 18.9517 4.92375 18.6592 4.7779 18.399C4.71962 16.2628 4.46081 14.137 4.00492 12.0495C5.00544 10.8533 5.61626 9.37839 5.75507 7.82343V4.93388C5.7084 4.64141 5.84549 4.18224 5.68506 4.01554C5.64422 3.40136 5.76965 2.61463 5.61506 2.11452C5.63427 1.8076 5.61071 1.4995 5.54505 1.19911C5.54505 0.86862 5.45754 0.614176 5.1221 0.634648C4.83041 0.652196 4.80707 0.927113 4.76915 1.19911C4.67873 1.40968 4.76915 1.80158 4.62914 1.97414C4.68456 2.66143 4.52997 3.144 4.55913 3.80497C4.51538 5.00407 4.65248 6.38743 4.48913 7.46955H3.51488C3.37487 6.36403 3.47404 5.02162 3.44488 3.80497C3.49738 3.14107 3.33987 2.68775 3.37487 2.05018C3.28153 1.50619 3.36028 0.792579 2.95192 0.570306C2.88626 0.555847 2.81779 0.5615 2.75537 0.586531C2.69296 0.611563 2.63949 0.654818 2.60189 0.710689C2.3452 1.06457 2.47063 1.80158 2.3102 2.26075C2.3627 2.90125 2.22852 3.35457 2.24019 3.9512V6.63017C2.19644 6.89047 2.33062 7.33209 2.17019 7.4754C1.94905 7.51158 1.7225 7.46133 1.53722 7.33501C1.35929 7.23265 1.35053 6.96066 1.18719 6.84075C1.14635 6.01307 1.0851 5.20587 1.11718 4.30508C1.05653 3.9793 1.03305 3.64766 1.04718 3.31655C1.00051 3.02408 1.1376 2.52105 0.974253 2.33094C0.950918 1.65535 1.16385 0.728237 0.492963 0.70484C0.218774 0.853997 0.0962636 1.16986 0.140017 1.62025C0.183771 2.07065 0.020424 2.33972 0.0700115 2.81936C-0.0233372 3.63852 -0.0233372 4.46568 0.0700115 5.28484V6.62432C0.28878 7.44908 0.189605 8.56921 0.422957 9.35887C0.475462 9.37642 0.504631 9.42029 0.492963 9.50218C0.697147 9.83559 0.924666 10.1485 1.12593 10.4878C1.26011 10.8943 1.5518 11.14 1.68598 11.5465C1.8785 11.6342 1.89016 11.9062 2.10893 11.9677C2.16435 12.2162 2.53772 12.149 2.52897 12.4619C2.23727 14.5443 2.15852 16.8489 1.96892 19.0131C1.83474 20.0923 1.80557 21.2563 1.61597 22.2683C1.61597 22.8532 1.49346 23.3182 1.47596 23.8885C1.39429 24.4734 1.55764 24.9414 1.33595 25.4386C1.45656 25.6525 1.50563 25.8995 1.47596 26.1434C1.52077 26.3625 1.59127 26.5756 1.68598 26.7781C1.84388 26.8483 1.98732 26.9475 2.10893 27.0705C2.24019 27.1758 2.57564 27.0705 2.67189 27.2109C3.1736 27.2109 3.58489 27.0939 4.07784 27.0705C4.19452 26.9301 4.48038 26.9594 4.56789 26.7781C4.85958 26.8073 4.78374 26.4856 4.99084 26.4242C5.0636 26.166 5.03867 25.89 4.92083 25.6492C5.11335 25.3976 5.37587 25.2134 5.41087 24.8039C5.30003 23.7423 5.22127 22.6485 5.06084 21.6424ZM2.38895 10.0783C2.11476 9.83559 2.30728 9.12782 2.24894 8.66865H2.54063C2.54355 9.19801 2.40354 9.57237 2.38895 10.0783ZM4.43079 8.66865C4.43079 8.98744 4.25869 9.15122 4.22077 9.44368C4.04576 9.59577 4.09535 9.97305 3.86783 10.0783C3.81186 10.3182 3.6907 10.5379 3.5178 10.713C3.43029 10.8768 3.28445 11.2189 3.09485 11.0639C3.15902 10.1544 2.93442 9.53435 2.95483 8.66865H4.43079ZM3.30195 17.8403V16.7699C3.38654 16.7699 3.42737 16.7875 3.44488 16.843C3.43029 17.3724 3.56739 17.7526 3.51488 18.3229C3.51488 18.5744 3.80657 19.3056 3.30195 19.2383C3.01026 19.2646 3.24069 18.9459 3.23194 18.8143V18.1796C3.1736 17.9807 3.33112 17.9983 3.30195 17.8403ZM3.65489 20.2356C3.72326 20.5594 3.74682 20.891 3.7249 21.2212C3.47276 21.1741 3.23328 21.0745 3.02192 20.9288C2.9315 20.3936 3.23777 20.2503 3.65489 20.2239V20.2356ZM2.88191 22.0577C3.22902 22.0577 3.5003 22.2156 3.7949 22.0577C3.86988 22.334 3.91678 22.6172 3.93492 22.9029C3.59164 22.7977 3.23898 22.7262 2.88191 22.6894V22.0577ZM4.07784 24.3974C3.77077 24.4165 3.46254 24.3929 3.16194 24.3272C2.87024 24.3067 2.57855 24.2512 2.67189 23.8329C2.93442 23.6896 3.78615 24.0464 3.93492 23.6224C4.10118 23.7452 4.08076 24.0728 4.08076 24.3828L4.07784 24.3974ZM26.9872 7.32916C26.6518 6.93726 26.3776 6.48687 26.0043 6.13006C25.6536 5.7317 25.2786 5.35564 24.8812 5.00407C24.7441 4.85784 24.4262 4.89293 24.2483 4.79057C24.0703 4.68821 23.9187 4.5566 23.6853 4.49811C23.3936 4.19102 22.889 4.12375 22.5594 3.86346C21.6843 3.57099 20.8267 3.25221 19.8904 3.01824C18.9989 2.92589 18.1031 2.88293 17.2069 2.88955C17.2069 2.94512 17.1485 2.97144 17.0668 2.95974C14.9123 3.06416 12.8354 3.79928 11.093 5.07426C10.3417 5.67739 9.63678 6.33632 8.98409 7.04547C8.7274 7.30284 8.4007 7.52804 8.2111 7.75031C8.11485 7.86145 8.09735 7.98136 8.00109 8.1042C7.97484 8.13929 7.88733 8.13637 7.86108 8.17439C7.83482 8.21241 7.82899 8.33232 7.79107 8.38496C7.75315 8.43761 7.67439 8.42006 7.64814 8.45515C7.62189 8.49025 7.61606 8.61601 7.57814 8.66865C7.54022 8.7213 7.46438 8.70375 7.43812 8.73884C7.41187 8.77394 7.39729 8.8997 7.36812 8.94942C7.2838 9.05717 7.21325 9.17507 7.1581 9.30038C6.38356 10.5117 5.9021 11.8878 5.75215 13.3188C5.6091 15.5073 6.04584 17.6948 7.01809 19.6595C7.82185 21.3283 8.86339 22.8712 10.11 24.2395C10.1625 24.257 10.2471 24.2395 10.25 24.3126C11.0211 24.9234 11.8439 25.4656 12.709 25.9328C13.8714 26.2995 15.0765 26.5128 16.2939 26.5675H20.5817C21.308 26.4739 21.8302 26.1756 22.6236 26.1434C22.8744 25.9709 23.2944 25.9679 23.5395 25.7895C23.8837 25.7135 24.1228 25.5263 24.4525 25.4386C24.5866 25.2456 24.925 25.1724 25.0154 25.0876C25.1058 25.0028 25.0796 25.0642 25.1554 25.0174C25.2313 24.9706 25.3013 24.8536 25.3654 24.8039C25.6845 24.5906 25.9688 24.3292 26.2084 24.0289C26.5641 23.8683 26.8776 23.627 27.1243 23.3241C27.4685 23.1281 27.6581 22.7771 27.9702 22.549C28.0082 22.2566 28.294 22.2156 28.3203 21.9144C28.5361 21.8032 28.542 21.4815 28.7432 21.3528C28.9445 20.7299 29.2099 20.183 29.3733 19.5191C29.5045 18.8055 29.7787 18.2322 29.9362 17.545C30.1142 14.6028 29.595 12.108 28.6003 10.1485C28.1218 9.17591 27.5831 8.23428 26.9872 7.32916V7.32916ZM29.0962 16.7699C28.9153 17.6473 28.6703 18.4574 28.4632 19.3085C28.2678 19.6302 28.2153 20.0923 27.9732 20.3643C27.8682 20.765 27.6173 21.0575 27.4802 21.423C27.1885 21.7418 26.9318 22.0957 26.6372 22.4086C26.2901 22.6485 26.0888 23.0345 25.6542 23.1837C25.0125 23.7736 24.2758 24.2502 23.4753 24.5934C21.9322 25.3187 19.6337 25.2982 17.4285 25.2982C16.3703 25.3295 15.3114 25.259 14.2666 25.0876C13.4037 24.9 12.5578 24.6408 11.7376 24.3126C11.5247 24.1956 11.4285 23.9616 11.2447 23.8183C11.2447 23.5259 10.8947 23.558 10.8947 23.2539C10.5691 22.9401 10.2858 22.5852 10.0517 22.1981C9.51852 21.4743 9.02578 20.7216 8.57572 19.9432C8.40368 19.5016 8.19181 19.0768 7.94275 18.6739C7.92525 18.3814 7.72981 18.2761 7.72981 17.969C7.56647 17.8286 7.61314 17.4748 7.43812 17.3344C7.1919 16.2522 7.05509 15.148 7.02976 14.0383C7.21644 10.9148 8.72448 9.11612 10.2617 7.34379C12.3356 5.53343 14.7742 4.09451 18.6945 4.15885C18.7761 4.15885 18.8199 4.1413 18.8345 4.08573H19.8321C21.9946 4.71465 23.9884 5.82315 25.6659 7.32916C25.9576 7.81173 26.3426 8.20656 26.5789 8.73884C26.9028 9.20521 27.1831 9.70061 27.416 10.2187C27.9469 11.2586 28.3918 12.3405 28.7461 13.4534C28.9874 14.5421 29.1048 15.6547 29.0962 16.7699ZM24.5283 9.51388C24.1391 9.2278 23.7856 8.89592 23.4753 8.52535C22.7519 8.40543 22.2764 8.03693 21.6464 7.82343C21.0068 7.56569 20.3498 7.35361 19.6804 7.18878C19.2954 7.21803 19.097 7.06302 18.6945 7.11859C18.6945 7.17123 18.6361 7.20048 18.5545 7.18878C16.5885 7.16538 15.2584 7.77371 13.8466 8.31477C13.3112 8.66272 12.7952 9.03958 12.3006 9.44368C12.0323 9.62209 11.8602 9.89408 11.5976 10.0783C11.3351 10.2626 11.2272 10.5989 10.9647 10.7832C10.5634 11.4178 10.2559 12.1074 10.0517 12.8304C9.86501 14.0448 9.86501 15.2806 10.0517 16.495C10.2559 16.8313 10.2734 17.3519 10.5417 17.6239C10.6669 18.0378 10.832 18.4384 11.0347 18.8201C11.3264 19.2529 11.7143 19.5951 12.0177 20.0192C12.3318 20.2526 12.6612 20.4646 13.0036 20.6539C13.2953 20.8908 13.5345 21.2008 13.9866 21.2885C14.2953 21.4412 14.6277 21.5401 14.9696 21.581C15.2817 21.6892 15.6142 21.7798 15.9555 21.8734C16.7197 21.9495 17.3731 22.1425 18.2015 22.1659C19.0941 22.1191 19.8496 21.9349 20.7334 21.8734C21.5676 21.581 22.2677 21.1569 23.0669 20.8176C23.1573 20.6977 23.2128 20.5252 23.417 20.5252C24.243 19.6591 24.906 18.6505 25.3742 17.5479C25.7925 16.2039 25.9828 14.7991 25.9372 13.392C25.8245 12.5308 25.6362 11.6813 25.3742 10.8534C25.0825 10.4234 24.7908 9.97012 24.5283 9.51388ZM24.82 16.1382C24.6275 16.8343 24.435 17.5362 24.2599 18.2498C23.7174 19.1272 23.1486 19.9578 22.2181 20.4345C21.3693 20.5018 20.7363 20.7825 19.9692 20.9288C18.9906 20.7964 18.0047 20.726 17.0173 20.7182C16.0138 20.5018 14.9171 20.3819 14.1353 19.9432C13.2388 19.7455 12.4129 19.3067 11.7464 18.6739C11.5743 18.3522 11.4285 18.0041 11.2534 17.6883C11.1383 17.3496 10.9979 17.0202 10.8334 16.7027C10.6324 15.7308 10.5578 14.7369 10.6117 13.7458C10.7196 13.3627 10.7196 12.8684 10.9034 12.5497C11.0186 12.2337 11.1591 11.9275 11.3234 11.6342C11.5072 11.3889 11.672 11.1298 11.8164 10.8592C12.6326 10.0542 13.5552 9.36537 14.5583 8.81196C15.1883 8.74005 15.8038 8.57342 16.3843 8.3177C16.8627 8.3177 17.201 8.19486 17.7202 8.2475C17.8019 8.2475 17.8457 8.23288 17.8602 8.17731C18.7645 8.25628 19.7387 8.26505 20.5321 8.46978C21.2351 8.63356 21.5997 9.13952 22.4981 9.10443C22.7664 9.38289 23.074 9.62037 23.4111 9.80927C23.5978 9.88238 23.6036 10.1368 23.7641 10.2333C23.9245 10.3299 24.2279 10.286 24.257 10.5258C24.8404 11.3564 25.0388 12.5731 25.17 13.8365C25.03 14.5794 24.9094 15.3466 24.8083 16.1382H24.82Z" fill="#FCFDF7"/>
</svg>
