<svg width="54" height="54" viewBox="0 0 54 54" fill="none" xmlns="http://www.w3.org/2000/svg">
<path d="M0.0540164 26.5218C-0.100082 23.4011 0.108404 19.2853 0.268545 15.1363C0.301782 14.3946 0.250416 13.6528 0.232287 12.9111C0.193007 11.4035 0.71271 10.0556 1.4409 8.75909C2.97365 6.00194 5.18031 3.67644 7.85561 1.99894C9.34141 1.0517 11.0498 0.50907 12.8109 0.424985C14.7507 0.316437 16.7026 0.177736 18.6576 0.0872788C19.8662 0.0330046 21.0748 -0.0242849 22.2834 0.0360198C25.2445 0.183766 28.1965 0.114416 31.1576 0.0360198C34.8947 -0.0892883 38.6356 0.112499 42.3373 0.639067C43.2807 0.767745 44.1809 1.11468 44.966 1.65219C45.7064 2.1733 46.4761 2.6515 47.2715 3.08442C49.6313 4.30861 51.2236 6.20519 52.2842 8.59325C53.347 10.941 53.9275 13.4775 53.9913 16.0529C54.0185 17.3073 53.9732 18.5616 53.9702 19.816C53.9702 21.8663 53.9974 23.9167 53.9702 25.967C53.9138 29.4486 53.8352 32.9312 53.7345 36.4148C53.6831 38.1727 53.5925 39.9306 53.4867 41.6854C53.4599 42.1199 53.3577 42.5463 53.1846 42.9458C52.536 44.4373 51.8602 45.9168 51.1571 47.3842C50.6486 48.4077 49.8913 49.2878 48.9545 49.9442C47.1234 51.289 45.2198 52.5131 43.0171 53.2097C41.2846 53.7088 39.4872 53.9477 37.6841 53.9182C32.9222 53.9665 28.1603 53.9665 23.4014 53.9846C21.6731 53.9846 19.9447 54.0027 18.2195 53.9997C17.8327 53.9997 17.4459 53.9454 17.0622 53.9243C15.5665 53.8459 14.0679 53.8187 12.5783 53.6831C11.1158 53.5649 9.68836 53.1753 8.36927 52.5343C4.4866 50.5774 2.02405 47.4084 0.836593 43.2684C0.40419 41.6092 0.200876 39.8989 0.232287 38.1848C0.171856 34.6268 0.114447 31.0839 0.0540164 26.5218ZM39.6361 26.6907C39.6149 26.3228 39.5877 25.6836 39.5394 25.0474C39.4034 23.3317 38.9834 21.7306 37.7959 20.3949C37.4152 19.9727 37.0647 19.5265 36.678 19.1104C35.7127 18.0518 34.5512 17.1897 33.2576 16.5716C30.6209 15.3525 27.7879 14.6112 24.891 14.3825C24.0734 14.2969 23.2474 14.3407 22.4436 14.5122C20.8391 14.9261 19.4019 15.8244 18.3282 17.0842C16.1497 19.4963 14.8625 22.3699 14.0981 25.4906C13.6465 27.3259 13.8606 29.2614 14.7024 30.9542C16.3444 34.5217 19.2329 37.3699 22.8273 38.9657C23.8304 39.418 24.8426 39.8703 25.9757 39.8431C27.1088 39.816 28.2509 39.7889 29.3719 39.6502C31.7554 39.3556 33.9729 38.2778 35.6748 36.5867C36.2489 36.0349 36.7716 35.4318 37.3246 34.8559C37.8757 34.2779 38.3115 33.6005 38.6087 32.8599C39.3853 30.9663 39.627 28.9913 39.6481 26.7027L39.6361 26.6907ZM44.2862 12.097C44.2888 11.5556 44.0975 11.0312 43.7468 10.6182C43.3961 10.2052 42.9091 9.93084 42.3736 9.84458C42.0791 9.7602 41.7699 9.74065 41.4671 9.78729C40.1497 10.1129 39.3883 10.9602 39.0499 12.2839C38.5997 14.0267 40.334 15.4589 41.6575 15.2057C42.3906 15.0783 43.0561 14.699 43.5384 14.1334C44.0207 13.5678 44.2896 12.8516 44.2983 12.109L44.2862 12.097Z" fill="#FCFDF7"/>
<path d="M27.3173 35.6309C23.1989 35.7062 18.4884 32.3654 18.0744 27.1611C17.8267 24.1971 19.0987 21.9598 21.1503 20.0361C22.2083 18.984 23.5936 18.3226 25.0783 18.1606C25.6554 18.1598 26.2305 18.2276 26.7915 18.3626C28.438 18.6485 30.0095 19.2639 31.4115 20.1718C32.0952 20.5529 32.7235 21.0257 33.2788 21.5768C34.5871 22.991 35.6174 24.6102 35.9981 26.5218C36.6024 29.516 34.9436 32.8357 32.1427 34.3795C30.6722 35.2123 29.0079 35.6438 27.3173 35.6309Z" fill="#FCFDF7"/>
</svg>
