<svg width="15" height="24" viewBox="0 0 15 24" fill="none" xmlns="http://www.w3.org/2000/svg">
<path d="M7.54027 24C7.17196 23.5212 6.79014 23.089 6.48198 22.609C6.02773 21.9043 5.63609 21.1603 5.19902 20.4446C4.76195 19.7288 4.31629 19.0524 3.87431 18.3575C2.93035 16.8812 2.10518 15.3323 1.4066 13.7254C0.796044 12.3253 0.367753 10.8528 0.132231 9.34368C0.0340138 8.68808 -0.0678867 8.02267 0.0597958 7.36339C0.272191 6.27074 0.515279 5.17808 0.98795 4.16277C1.41041 3.28106 2.04018 2.51481 2.82339 1.92958C3.82707 1.16865 4.97295 0.616373 6.19347 0.305326C6.57652 0.202199 6.96447 0.112577 7.35489 0.0425977C7.88764 -0.0367641 8.43105 -0.00499585 8.95092 0.135903C9.33029 0.227981 9.71456 0.365484 10.0988 0.475977C10.6182 0.631895 11.0626 0.931455 11.5181 1.2126C12.224 1.64598 12.7998 2.23037 13.3597 2.83317C13.5002 2.98273 13.6237 3.14744 13.728 3.32425C14.3295 4.36411 14.8243 5.44572 14.9434 6.65869C15.102 8.11432 14.9261 9.58696 14.429 10.9642C14.1135 11.8236 13.7992 12.683 13.4468 13.5326C13.0945 14.3822 12.6783 15.2084 12.2829 16.042C11.4444 17.8087 10.4414 19.4882 9.4371 21.1603C8.94601 21.9755 8.38617 22.749 7.85825 23.5408C7.80669 23.6182 7.76495 23.7017 7.71338 23.7802C7.66182 23.8588 7.61148 23.903 7.54027 24ZM7.3242 10.9004C7.91964 10.8866 8.50854 10.7729 9.06633 10.564C9.39296 10.4547 9.6925 10.277 9.94488 10.0426C10.1973 9.80821 10.3967 9.52262 10.5298 9.20495C10.6045 9.02917 10.6636 8.84718 10.7066 8.66108C10.8023 8.25962 10.8858 7.8557 10.8293 7.43337C10.7999 7.20993 10.7876 6.9828 10.7458 6.76182C10.7258 6.56739 10.6709 6.37817 10.5838 6.20321C10.4052 5.91776 10.1997 5.65012 9.96993 5.40398C9.76319 5.19472 9.54162 5.00065 9.30696 4.82327C8.9865 4.55896 8.59365 4.39763 8.17991 4.36043C7.95033 4.33956 7.71829 4.35184 7.48994 4.33097C7.13257 4.29677 6.77202 4.3386 6.43198 4.45371C6.09193 4.56882 5.78011 4.7546 5.517 4.99884C5.40282 5.09951 5.29724 5.21 5.18429 5.3119C4.7891 5.65651 4.51461 6.11858 4.401 6.63045C4.29787 7.09575 4.18492 7.55614 4.2549 8.04108C4.35067 8.69054 4.62322 9.26879 4.94488 9.82739C5.15818 10.1859 5.48859 10.46 5.8804 10.6033C6.34199 10.7813 6.82984 10.8817 7.3242 10.9004Z" fill="#FCFDF7"/>
</svg>
