<svg width="158" height="48" viewBox="0 0 158 48" fill="none" xmlns="http://www.w3.org/2000/svg">
<line x1="147.852" y1="35.7773" x2="1.16565" y2="35.7773" stroke="#FCFDF7" stroke-width="1.16572"/>
<path d="M17.2126 17.5973L20.3849 17.4303C21.6093 17.4303 22.3177 17.8249 22.5099 18.6142C22.5706 18.8672 22.601 19.1455 22.601 19.4491V24.2C22.601 25.4851 22.4138 26.4363 22.0394 27.0536C21.665 27.6607 20.9668 28.364 19.9447 29.1634C18.9227 30.0134 17.3542 30.6307 15.2394 31.0152C14.4602 31.1568 13.4483 31.2277 12.2036 31.2277C10.959 31.2277 9.6435 30.9747 8.25718 30.4687C6.87086 29.9527 5.66669 29.2039 4.64466 28.2223C2.4387 26.1074 1.33572 23.2083 1.33572 19.5249C1.33572 15.8416 2.44376 12.902 4.65984 10.7062C6.87592 8.50019 9.79022 7.39721 13.4027 7.39721C14.951 7.39721 16.2057 7.48323 17.167 7.65525C17.1569 7.60465 17.1519 7.56418 17.1519 7.53382V7.44275C17.1721 7.11894 17.2834 6.86596 17.4858 6.68382C17.6983 6.49155 17.9462 6.39542 18.2295 6.39542C18.523 6.39542 18.8114 6.53203 19.0947 6.80525C19.3781 7.07846 19.6665 7.53382 19.9599 8.17132C20.2635 8.79871 20.5316 9.26419 20.7644 9.56776L21.9787 11.1615C22.4442 11.7585 22.6769 12.2493 22.6769 12.6338C22.6769 13.0083 22.5757 13.3118 22.3733 13.5446C22.1811 13.7773 21.918 13.8937 21.584 13.8937C21.2501 13.8937 20.9465 13.8026 20.6733 13.6205C20.4102 13.4282 20.1168 13.069 19.7929 12.5428C19.1757 11.5207 18.3358 10.7972 17.2733 10.3722C16.2209 9.94722 14.9661 9.73472 13.509 9.73472C10.7262 9.73472 8.49498 10.5948 6.81521 12.3151C5.13544 14.0353 4.29556 16.4032 4.29556 19.4187C4.29556 22.4241 5.09496 24.7312 6.69378 26.3402C8.2926 27.9491 10.3316 28.7536 12.8108 28.7536C14.4804 28.7536 15.973 28.4905 17.2885 27.9643C17.8754 27.7214 18.3864 27.3925 18.8215 26.9777C19.2566 26.5628 19.5551 26.1833 19.7171 25.8393C19.8891 25.4851 19.9751 24.7262 19.9751 23.5625V20.5875C19.9751 20.4458 19.9194 20.3142 19.8081 20.1928C19.7069 20.0613 19.5197 19.9955 19.2465 19.9955C18.1941 19.9955 17.2227 20.0309 16.3322 20.1017C15.4519 20.1625 14.7182 20.1928 14.1313 20.1928C13.5444 20.1928 13.1194 20.0663 12.8563 19.8133C12.6033 19.5604 12.4768 19.2467 12.4768 18.8723C12.4768 17.9717 13.2206 17.5214 14.7081 17.5214C15.0117 17.5214 15.2697 17.5264 15.4822 17.5365L16.0286 17.5669C16.4739 17.5871 16.8685 17.5973 17.2126 17.5973ZM47.205 8.58115C47.205 9.42103 46.5725 9.84097 45.3076 9.84097H44.7916V22.0901C44.7916 24.7717 43.896 26.9675 42.1049 28.6777C40.324 30.3777 38.1484 31.2277 35.5781 31.2277C33.018 31.2277 30.8778 30.403 29.1576 28.7536C27.4474 27.094 26.5924 24.8527 26.5924 22.0294V9.84097H25.7727C25.2567 9.84097 24.8418 9.72966 24.5281 9.50704C24.2144 9.28442 24.0575 8.99097 24.0575 8.62668C24.0575 8.2624 24.1891 7.96894 24.4522 7.74632C24.7254 7.51358 25.0846 7.39721 25.5299 7.39721L28.2924 7.50346L30.6602 7.39721C31.4192 7.39721 31.8391 7.64513 31.9201 8.14097C31.9504 8.28263 31.9656 8.49513 31.9656 8.77847C31.9656 9.48681 31.4344 9.84097 30.3719 9.84097H29.4156V21.9839C29.4156 24.2202 30.0076 25.9202 31.1915 27.0839C32.3754 28.2476 33.8832 28.8295 35.7147 28.8295C37.5564 28.8295 39.0591 28.2375 40.2228 27.0536C41.3966 25.8595 41.9835 24.1696 41.9835 21.9839V9.84097H40.7085C39.7674 9.84097 39.2969 9.43621 39.2969 8.62668C39.2969 7.80704 39.6865 7.39721 40.4657 7.39721H40.7237L42.7728 7.50346L45.596 7.39721C46.4157 7.39721 46.9267 7.64513 47.1291 8.14097C47.1797 8.28263 47.205 8.42936 47.205 8.58115ZM54.2776 30.9089L51.2419 31C50.7966 31 50.4425 30.8937 50.1794 30.6812C49.9264 30.4586 49.7999 30.1652 49.7999 29.8009C49.7999 29.4366 49.9517 29.1381 50.2553 28.9053C50.5588 28.6726 50.9737 28.5562 51.4999 28.5562H52.9571V9.78026L51.6669 9.90169C51.5859 9.90169 51.51 9.90169 51.4392 9.90169C50.8219 9.90169 50.3463 9.78532 50.0124 9.55258C49.6886 9.31984 49.5267 9.00109 49.5267 8.59633C49.5267 7.79692 50.1996 7.39721 51.5455 7.39721C53.4681 7.39721 54.7886 7.56924 55.5071 7.91329C56.2255 8.24722 56.7922 8.68234 57.2071 9.21865C57.6321 9.75496 58.0014 10.271 58.3151 10.7669L68.1357 26.4464C68.0649 25.3839 68.0295 24.5086 68.0295 23.8205V9.84097H66.6027C66.0866 9.84097 65.6717 9.72966 65.358 9.50704C65.0443 9.28442 64.8875 8.99097 64.8875 8.62668C64.8875 8.2624 65.019 7.96894 65.2821 7.74632C65.5553 7.51358 65.9146 7.39721 66.3598 7.39721L69.3955 7.50346L72.2188 7.39721C73.0384 7.39721 73.5444 7.64513 73.7366 8.14097C73.7973 8.28263 73.8277 8.42936 73.8277 8.58115C73.8277 9.42103 73.1953 9.84097 71.9304 9.84097H70.8223V28.5411H71.6116C72.9271 28.5411 73.5848 28.9661 73.5848 29.8161C73.5848 30.6054 72.9271 31 71.6116 31H70.2759C69.5878 31 68.9807 30.8432 68.4545 30.5295C67.9384 30.2158 67.5336 29.8414 67.2402 29.4062L55.6133 11.2526C55.7044 12.2139 55.7499 13.2815 55.7499 14.4553V28.5562H56.8276C57.5258 28.5562 58.0166 28.6827 58.2999 28.9357C58.5934 29.1786 58.7401 29.4265 58.7401 29.6795C58.7401 30.5598 58.1988 31 57.116 31L54.2776 30.9089ZM84.4218 9.73472C84.1587 9.73472 83.8652 9.74484 83.5414 9.76508V28.8295C84.1182 28.8598 84.953 28.875 86.0459 28.875C87.1489 28.875 88.1911 28.7586 89.1727 28.5259C90.1542 28.283 90.9435 27.9997 91.5406 27.6759C92.8358 26.9675 93.8831 25.8949 94.6825 24.458C95.4921 23.0211 95.8968 21.2654 95.8968 19.191C95.8968 15.3862 94.6421 12.7705 92.1325 11.3437C90.2504 10.271 87.6801 9.73472 84.4218 9.73472ZM80.7334 10.0079L78.9726 10.2508C77.647 10.2508 76.9842 9.83591 76.9842 9.00615C76.9842 8.4496 77.2929 8.04483 77.9101 7.79186C78.5274 7.52876 79.7468 7.39721 81.5682 7.39721H84.4825C91.92 7.39721 96.4483 9.61835 98.0674 14.0606C98.5936 15.4874 98.8567 16.98 98.8567 18.5383C98.8567 21.3616 98.1989 23.7851 96.8834 25.8089C95.5781 27.8327 93.9388 29.2443 91.9656 30.0437C89.9923 30.833 87.8066 31.2277 85.4084 31.2277L82.2057 31C81.6087 31 81.0622 31.0304 80.5664 31.0911C80.0706 31.1619 79.6253 31.1973 79.2307 31.1973C77.986 31.1973 77.3637 30.742 77.3637 29.8312C77.3637 28.9104 78.1024 28.45 79.5798 28.45H80.2173C80.3893 28.45 80.5613 28.4601 80.7334 28.4803V10.0079ZM115.628 31.1366C114.404 30.8836 112.613 30.7571 110.255 30.7571C107.897 30.7571 106.208 30.7976 105.186 30.8786C104.164 30.9595 103.567 31 103.394 31C102.494 31 102.044 30.5851 102.044 29.7554C102.044 29.1786 102.519 28.7839 103.47 28.5714C103.794 28.5006 104.184 28.4652 104.639 28.4652H105.899V9.84097H104.366C103.85 9.84097 103.435 9.72966 103.121 9.50704C102.818 9.28442 102.666 8.99097 102.666 8.62668C102.666 8.2624 102.797 7.96894 103.061 7.74632C103.324 7.51358 103.683 7.39721 104.138 7.39721L107.326 7.50346L110.316 7.39721C111.125 7.39721 111.636 7.64513 111.849 8.14097C111.91 8.28263 111.94 8.42936 111.94 8.58115C111.94 9.42103 111.297 9.84097 110.012 9.84097H108.722V28.5107C111.272 28.6726 112.967 28.7536 113.807 28.7536C114.657 28.7536 115.193 28.703 115.416 28.6018C116.013 28.3589 116.625 27.6759 117.253 26.5527C117.89 25.4193 118.361 24.716 118.664 24.4428C118.978 24.1696 119.302 24.033 119.636 24.033C120.314 24.033 120.698 24.4226 120.789 25.2018C120.799 25.2422 120.804 25.3535 120.804 25.5357C120.804 25.7178 120.592 26.1024 120.167 26.6893C119.742 27.2661 119.337 28.0047 118.953 28.9053C118.568 29.7958 118.305 30.5598 118.163 31.1973C117.91 32.3104 117.475 32.867 116.858 32.867C116.504 32.867 116.205 32.7354 115.962 32.4723C115.73 32.2092 115.613 31.8652 115.613 31.4402C115.613 31.3896 115.613 31.339 115.613 31.2884C115.613 31.2378 115.618 31.1872 115.628 31.1366ZM129.349 21.7259C131.586 23.4461 132.835 24.4378 133.098 24.7009L133.645 25.2625C133.959 25.5559 134.222 25.7027 134.434 25.7027C134.647 25.7027 134.834 25.6521 134.996 25.5509C135.158 25.4396 135.35 25.2675 135.573 25.0348C135.805 24.7919 136.063 24.5541 136.347 24.3214L139.732 21.7107L135.588 12.7705C135.315 12.1734 135.097 11.7231 134.935 11.4196C134.783 11.116 134.642 10.9642 134.51 10.9642C134.389 10.9642 134.262 11.0755 134.131 11.2981C134.009 11.5106 133.847 11.8446 133.645 12.2999L129.349 21.7259ZM124.128 30.8786L121.881 31C121.092 31 120.698 30.6812 120.698 30.0437C120.698 29.6289 121.026 29.1684 121.684 28.6625C122.858 27.7315 123.951 26.2845 124.963 24.3214L130.245 13.6963L132.127 9.70437C132.572 8.72281 132.952 8.04483 133.265 7.67043C133.589 7.2859 133.999 7.09364 134.495 7.09364C134.991 7.09364 135.406 7.2606 135.74 7.59454C136.084 7.92847 136.493 8.60644 136.969 9.62847L140.293 16.7321C143.137 22.3785 144.649 25.3687 144.832 25.7027L145.393 26.7196C145.838 27.4988 146.147 27.9693 146.319 28.1312C146.491 28.2931 146.668 28.4298 146.85 28.5411C147.65 29.0167 148.049 29.4417 148.049 29.8161C148.049 30.6054 147.655 31 146.866 31L144.574 30.8937L141.492 31C140.976 31 140.571 30.8988 140.278 30.6964C139.985 30.494 139.838 30.1905 139.838 29.7857C139.838 28.9559 140.759 28.5411 142.6 28.5411C142.712 28.5411 142.823 28.5411 142.934 28.5411C143.046 28.5411 143.157 28.536 143.268 28.5259C142.995 28.1312 142.712 27.6303 142.418 27.0232L140.87 23.866L138.016 26.0821C137.085 26.8006 136.392 27.4381 135.937 27.9946C135.482 28.5411 135.067 28.8143 134.692 28.8143C134.318 28.8143 134.019 28.7232 133.797 28.5411C133.584 28.3589 133.392 28.1667 133.22 27.9643L132.582 27.2357C132.4 27.0232 132.157 26.7955 131.854 26.5527L129.516 24.8071C129.041 24.4631 128.555 24.0937 128.059 23.6991L125.828 28.617H126.283C127.275 28.617 127.993 28.708 128.439 28.8902C128.884 29.0622 129.106 29.3961 129.106 29.892C129.106 30.6408 128.59 31.0152 127.558 31.0152L124.128 30.8786Z" fill="#FCFDF7"/>
<path d="M6.24049 45.7621C5.88611 46.0108 5.55971 46.1942 5.26128 46.3123C4.96908 46.4304 4.60226 46.4895 4.16084 46.4895C3.61373 46.4895 3.12879 46.3714 2.70603 46.1351C2.28326 45.8989 1.95375 45.56 1.7175 45.1186C1.48124 44.6772 1.36312 44.1581 1.36312 43.5612C1.36312 42.9706 1.47503 42.4545 1.69884 42.0131C1.92888 41.5717 2.25528 41.2329 2.67805 40.9966C3.10703 40.7542 3.61062 40.6329 4.18882 40.6329C4.91623 40.6329 5.52862 40.8163 6.026 41.1831L6.30577 42.4328L5.41982 42.6473L5.20533 41.752C4.93177 41.5966 4.60226 41.5189 4.2168 41.5189C3.91216 41.5189 3.62617 41.6028 3.35883 41.7707C3.09771 41.9385 2.88632 42.1779 2.72468 42.4887C2.56925 42.7996 2.49153 43.1571 2.49153 43.5612C2.49153 43.9778 2.55992 44.3384 2.6967 44.643C2.8397 44.9414 3.03554 45.1715 3.28422 45.3331C3.53913 45.4885 3.82512 45.5662 4.14219 45.5662C4.34736 45.5662 4.53077 45.5445 4.69241 45.501C4.86028 45.4574 5.03436 45.3922 5.21466 45.3051V44.3352H4.02096V43.4773H6.24049V45.7621ZM13.6449 45.3611V46.303H11.2295V45.3611H11.7238L11.4347 44.5591H9.57889L9.28979 45.3611H9.83069V46.303H7.42464V45.3611H8.34789L9.75608 41.752H8.97272V40.8101H9.96125C9.7623 40.6298 9.66282 40.3842 9.66282 40.0734C9.66282 39.7812 9.74986 39.548 9.92394 39.3739C10.1042 39.1936 10.3405 39.1035 10.6327 39.1035C10.9249 39.1035 11.1581 39.1936 11.3321 39.3739C11.5124 39.548 11.6026 39.7812 11.6026 40.0734C11.6026 40.2661 11.5591 40.4371 11.472 40.5863C11.3912 40.7355 11.2793 40.8474 11.1363 40.922L12.8056 45.3611H13.6449ZM10.6327 39.6164C10.4959 39.6164 10.384 39.6599 10.297 39.747C10.2099 39.8278 10.1664 39.9366 10.1664 40.0734C10.1664 40.2102 10.2099 40.3221 10.297 40.4091C10.384 40.4899 10.4959 40.5303 10.6327 40.5303C10.7695 40.5303 10.8783 40.4899 10.9591 40.4091C11.0461 40.3221 11.0897 40.2102 11.0897 40.0734C11.0897 39.9366 11.0461 39.8278 10.9591 39.747C10.8783 39.6599 10.7695 39.6164 10.6327 39.6164ZM9.84934 43.8223H11.1829L10.5301 41.8732L9.84934 43.8223ZM19.9987 45.3611V46.303H18.404L17.3875 44.4192H16.6601V45.3611H17.145V46.303H14.7949V45.3611H15.5783V41.752H14.7949V40.8101H17.2662C18.0745 40.8101 18.6371 40.9624 18.9542 41.2671C19.2775 41.5655 19.4391 42.0131 19.4391 42.61C19.4391 43.4928 19.0972 44.0524 18.4133 44.2886L19.0661 45.3611H19.9987ZM17.2196 43.4866C17.6237 43.4866 17.9066 43.4244 18.0682 43.3001C18.2361 43.1757 18.32 42.9488 18.32 42.6193C18.32 42.2898 18.2299 42.0629 18.0496 41.9385C17.8755 41.8142 17.5988 41.752 17.2196 41.752H16.6694V43.4866H17.2196ZM23.7656 40.8101C24.6858 40.8101 25.4039 41.0619 25.9199 41.5655C26.4359 42.0691 26.6939 42.7654 26.6939 43.6545C26.6939 44.4876 26.4421 45.1373 25.9385 45.6035C25.4349 46.0698 24.7355 46.303 23.8402 46.303H21.2104V45.3611H22.0031V41.752H21.2104V40.8101H23.7656ZM23.6724 45.3611C24.2941 45.3611 24.7635 45.2181 25.0806 44.9321C25.4039 44.6461 25.5655 44.2233 25.5655 43.6638C25.5655 43.0359 25.4132 42.5602 25.1085 42.2369C24.8039 41.9137 24.3563 41.752 23.7656 41.752H23.0848V45.3611H23.6724ZM30.2649 46.4895C29.5002 46.4895 28.8163 46.3714 28.2133 46.1351L28.0454 44.8575L28.922 44.7549L29.0246 45.4357C29.3852 45.56 29.7738 45.6222 30.1903 45.6222C30.5696 45.6222 30.8804 45.5538 31.1229 45.417C31.3716 45.2803 31.4959 45.0751 31.4959 44.8015C31.4959 44.5901 31.4276 44.4192 31.2908 44.2886C31.154 44.1518 30.9084 44.0524 30.554 43.9902L29.8826 43.8783C29.3168 43.7788 28.8847 43.5923 28.5863 43.3187C28.2941 43.0452 28.148 42.6877 28.148 42.2463C28.148 41.7302 28.3501 41.3323 28.7542 41.0526C29.1645 40.7666 29.6899 40.6236 30.3302 40.6236C30.9395 40.6236 31.5208 40.7386 32.0741 40.9686L32.2513 42.3395L31.3094 42.4421L31.1882 41.6028C30.9084 41.5095 30.61 41.4629 30.2929 41.4629C29.9323 41.4629 29.6463 41.5282 29.435 41.6588C29.2236 41.7831 29.1179 41.9541 29.1179 42.1717C29.1179 42.3893 29.1925 42.5602 29.3417 42.6846C29.4971 42.8027 29.7489 42.8929 30.0971 42.955L30.7965 43.0669C31.3747 43.154 31.7975 43.3312 32.0648 43.5985C32.3322 43.8658 32.4658 44.2202 32.4658 44.6616C32.4658 45.3144 32.2482 45.7838 31.813 46.0698C31.3778 46.3496 30.8618 46.4895 30.2649 46.4895ZM37.5632 41.6961C37.5135 41.6712 37.3891 41.637 37.1902 41.5935C36.9975 41.55 36.8047 41.5282 36.612 41.5282C36.0711 41.5282 35.6546 41.7023 35.3624 42.0504C35.0701 42.3986 34.924 42.896 34.924 43.5426C34.924 44.1954 35.0701 44.6989 35.3624 45.0533C35.6608 45.4077 36.0773 45.5849 36.612 45.5849C36.8731 45.5849 37.0907 45.5507 37.2648 45.4823C37.4451 45.4077 37.5446 45.3673 37.5632 45.3611L37.7591 44.5497L38.6637 44.7549L38.3839 46.0792C38.3839 46.0854 38.2969 46.1258 38.1228 46.2004C37.9549 46.2688 37.7373 46.3341 37.47 46.3962C37.2089 46.4584 36.9229 46.4895 36.612 46.4895C35.7478 46.4895 35.0639 46.2377 34.5603 45.7341C34.0567 45.2305 33.8049 44.4938 33.8049 43.5239C33.8049 42.9271 33.92 42.411 34.15 41.9758C34.3863 41.5344 34.7127 41.1987 35.1292 40.9686C35.552 40.7386 36.0431 40.6236 36.6027 40.6236C36.9508 40.6236 37.2586 40.6609 37.5259 40.7355C37.7933 40.8039 38.0078 40.8785 38.1694 40.9593C38.3311 41.0401 38.4119 41.0868 38.4119 41.0992L38.673 42.4141L37.7591 42.6193L37.5632 41.6961ZM39.6841 46.303V45.3611H40.6074L42.0155 41.752H41.2322V40.8101H43.3491L45.0651 45.3611H45.9044V46.303H43.489V45.3611H43.9833L43.6942 44.5591H41.8384L41.5493 45.3611H42.0902V46.303H39.6841ZM42.1088 43.8223H43.4424L42.7896 41.8732L42.1088 43.8223ZM46.918 40.8101H51.1519L51.7207 42.5167L50.8348 42.8151L50.4711 41.752H48.7831V43.0669H50.2193V44.0088H48.7738V45.3611H49.9582V46.303H46.9087V45.3611H47.7107L47.72 41.752H46.918V40.8101ZM52.8872 40.8101H57.1211L57.6713 42.4608L56.7854 42.7592L56.431 41.752H54.7617V43.039H56.3471V43.9715H54.7617V45.3611H56.6641L57.0092 44.4285L57.8858 44.7363L57.3449 46.303H52.8779V45.3611H53.6706L53.6799 41.752H52.8872V40.8101ZM56.7294 38.917L56.9719 39.8029L54.6125 40.1666L54.4632 39.747L56.7294 38.917Z" fill="#FCFDF7"/>
</svg>
