<svg width="62" height="50" viewBox="0 0 62 50" fill="none" xmlns="http://www.w3.org/2000/svg">
<path d="M53.5998 32.0406C53.3008 29.9563 51.6967 28.3313 49.6317 27.8469C41.6053 25.9594 39.5933 21.3219 39.2538 16.1781C37.8304 15.9125 35.2982 15.625 31 15.625C26.7018 15.625 24.1696 15.9125 22.7462 16.1781C22.4068 21.3219 20.3947 25.9594 12.3683 27.8469C10.3033 28.3344 8.69926 29.9563 8.40026 32.0406L6.85229 42.7969C6.30723 46.5844 9.07925 50 12.9352 50H49.0649C52.9177 50 55.6928 46.5844 55.1478 42.7969L53.5998 32.0406ZM31 42.1625C26.6551 42.1625 23.1325 38.6625 23.1325 34.35C23.1325 30.0375 26.6551 26.5375 31 26.5375C35.3449 26.5375 38.8676 30.0375 38.8676 34.35C38.8676 38.6625 35.3418 42.1625 31 42.1625ZM61.9906 12.5C61.9158 7.8125 50.0242 0.003125 31 0C11.9727 0.003125 0.0810788 7.8125 0.00944227 12.5C-0.0621942 17.1875 0.0748497 23.2875 7.90503 22.2719C17.0652 21.0812 16.5014 17.8719 16.5014 13.2844C16.5014 10.0844 23.9516 9.3125 31 9.3125C38.0484 9.3125 45.4955 10.0844 45.4986 13.2844C45.4986 17.8719 44.9349 21.0812 54.095 22.2719C61.9221 23.2875 62.0622 17.1875 61.9906 12.5Z" fill="#FCFDF7"/>
</svg>
