<svg width="67" height="53" viewBox="0 0 67 53" fill="none" xmlns="http://www.w3.org/2000/svg">
<path d="M33.627 16.1948C34.8897 16.2306 36.5778 16.2404 38.2625 16.3382C39.1286 16.4158 39.9887 16.5486 40.8375 16.7359C41.4969 16.8598 41.998 17.1727 42.1233 17.9322C42.4273 19.4275 42.9353 20.8751 43.6333 22.2352C44.0541 23.1806 44.6668 24.0305 45.4335 24.7322C46.0803 25.3651 46.7616 25.9625 47.4743 26.5219C48.6807 27.3707 50.0289 28.003 51.457 28.3897C52.9737 28.807 54.398 29.4264 55.5156 30.5575C56.0267 31.0633 56.4699 31.6319 56.8344 32.2494C58.3642 34.9061 58.9478 37.8465 59.2907 40.839C59.5261 42.4372 59.6572 44.0487 59.683 45.6635C59.6369 48.63 58.2983 50.977 55.6475 52.4244C54.4936 53.0535 53.1385 53.0764 51.8197 52.9166C51.3515 52.8645 50.8768 52.8025 50.4053 52.7927C47.7677 52.7341 45.1301 52.6656 42.4926 52.6493C40.4089 52.6493 38.3219 52.7895 36.2448 52.6852C33.8281 52.5613 31.4246 52.7178 29.0145 52.7471C26.944 52.7732 24.8735 52.708 22.803 52.7047C20.5611 52.7047 18.3191 52.7569 16.0805 52.7276C14.8177 52.7113 13.555 52.6004 12.2988 52.4798C11.789 52.4402 11.2931 52.2963 10.8425 52.0572C10.3918 51.8182 9.99633 51.4892 9.68103 51.0911C8.23036 49.2787 7.12587 47.3228 7.23467 44.8975C7.26764 44.089 7.25116 43.2676 7.3171 42.4722C7.46336 39.973 7.3171 37.6589 8.34575 35.043C9.37441 32.4271 8.7368 33.7457 9.00515 33.123C9.57966 31.7079 10.6268 30.5299 11.9724 29.7849C13.4545 28.8669 15.0415 28.126 16.7003 27.578C17.5494 27.3241 18.3302 26.8853 18.9851 26.2937C19.8753 25.4983 20.8182 24.755 21.6557 23.9108C23.1939 22.4448 24.0859 20.4385 24.1383 18.3267C24.145 17.9756 24.1714 17.6252 24.2174 17.277C24.2537 16.9902 24.4218 16.8532 24.735 16.7913C27.5342 16.2274 30.3795 16.3545 33.627 16.1948ZM30.6619 28.3604C29.3431 28.6864 28.5189 29.6644 28.5189 29.6644C28.5189 29.6644 26.4627 31.0367 25.4769 34.2183C25.0991 35.3249 24.9989 36.5056 25.185 37.6589C25.3711 38.8122 25.8378 39.9036 26.5451 40.839C27.1155 41.6202 27.8484 42.2717 28.6946 42.7497C29.5408 43.2276 30.4806 43.5209 31.451 43.6098C32.3859 43.7596 32.9918 44.0271 34.4644 43.6098C35.9371 43.1926 37.1989 43.1355 38.4604 42.3385C38.8612 42.1118 39.2112 41.8068 39.489 41.4421C40.8441 39.5481 41.2683 37.5434 40.8375 35.858C40.4067 34.1727 39.3176 31.6333 37.89 30.2609C36.5448 29.0124 35.0051 28.2268 33.0039 28.3604C33.0039 28.3604 31.9807 28.0344 30.6619 28.3604Z" fill="#FCFDF7"/>
<path d="M31.9026 0C37.6295 0.143432 42.7299 0.560689 47.7281 1.71792C51.0165 2.489 54.2193 3.58096 57.2894 4.97774C57.5462 5.08396 57.7924 5.21384 58.0246 5.36566C60.2995 6.94015 62.8019 8.19844 64.7834 10.1772C65.0207 10.3849 65.2818 10.5643 65.5615 10.7118C65.9212 10.9182 66.2275 11.2043 66.4564 11.5477C66.6852 11.891 66.8303 12.2822 66.8803 12.6905C67.0253 13.7104 67.0386 14.7445 66.9198 15.7677C66.8422 16.9766 66.6129 18.1712 66.2374 19.3242C65.9944 20.0663 65.6798 20.7835 65.2977 21.4659C64.7274 22.4015 63.7547 22.9035 62.7887 23.3631C61.4699 23.9923 60.0687 24.0151 58.6477 23.8195C58.3623 23.7669 58.0738 23.7321 57.7839 23.7152C55.5836 23.6344 53.4351 23.0318 51.5197 21.9581C49.6536 20.9443 48.5524 19.3503 48.5524 17.176C48.5524 16.5925 48.6579 16.009 48.6381 15.4287C48.5853 13.9455 47.5996 12.0418 45.5851 11.5332C43.9459 11.1313 42.2706 10.89 40.5836 10.8128C37.8603 10.6629 34.4644 10.1772 32.4038 10.451C30.3431 10.7248 27.5869 10.6009 25.19 10.8911C23.5415 11.0866 21.893 11.292 20.3467 11.944C19.7132 12.1941 19.1538 12.5983 18.7204 13.1192C18.287 13.64 17.9936 14.2606 17.8674 14.9235C17.7944 15.4639 17.7856 16.0109 17.841 16.5534C17.907 18.594 17.2904 20.3771 15.6947 21.7104C14.8685 22.4039 13.8822 22.8853 12.823 23.1121C11.3789 23.4153 9.92827 23.6728 8.47101 23.901C7.38295 24.0494 6.27552 23.9705 5.22018 23.6695C4.94324 23.5978 4.63662 23.6402 4.36297 23.562C3.04418 23.1871 2.01882 22.4862 1.488 21.1301C0.986863 19.8523 0.343952 18.6136 0.17251 17.251C-0.00253027 15.9491 -0.0445038 14.6331 0.0472243 13.3229C0.192504 12.1059 0.734058 10.9687 1.59021 10.0826C2.05527 9.48456 2.56557 8.92225 3.11671 8.40055C4.08273 7.6182 5.15754 6.97601 6.14663 6.21973C8.2633 4.60612 10.7162 3.70967 13.2055 2.8719C16.5981 1.7277 20.1258 1.30393 23.6569 0.847553C25.0152 0.678042 26.3736 0.423776 27.7287 0.290124C29.3145 0.133653 30.9069 0.0651964 31.9026 0Z" fill="#FCFDF7"/>
</svg>
