<svg xmlns="http://www.w3.org/2000/svg" viewBox="0 0 262.1 244.26"><defs><style>.cls-1{fill:#fcfdf7;fill-rule:evenodd;}</style></defs><g id="Layer_2" data-name="Layer 2"><g id="Layer_1-2" data-name="Layer 1"><g id="Layer_2-2" data-name="Layer 2"><g id="Tasty_Icons_Free" data-name="Tasty Icons Free"><g id="_0501-simmer" data-name=" 0501-simmer"><path class="cls-1" d="M163.2,28.87c1.19,3.35,3.55,5.52,4.19,9.43v3.14c-1.15,5.11-8.22,10.38-3.67,16.24,1,0,1.17.42,2.1.52,3.8.4,4.45-2,6.81-2.62A71.82,71.82,0,0,0,179,45.63c0-3.16.89-5.39.53-8.9-1.63-8.16-7.1-12.46-8.91-20.44V10c1.09-3.28,5.9-2.83,5.24-7.86-.8-1.86-3-2.32-5.81-2.08a24.85,24.85,0,0,0-6.29,3.14c-3.19,3.62-4.62,9-4.19,16.24C160.68,22.65,161.33,26.36,163.2,28.87Zm-67,16.23c3.11,6,9.3,8.86,12,15.2-.38,1.6.53,1.9.52,3.14-.12,7.91-5.45,10.61-6.29,17.81,1.35,2.33,2.72,4.62,6.29,4.71,3.82-.55,5.22-3.51,6.81-6.28a48.76,48.76,0,0,0,4.19-9.43c.84-3,.44-7.24.52-11-1.42.37.38-2.47-1-2.1.38-1.6-.91-1.54-.53-3.14-2-2.37-3.42-5.31-5.76-7.33-1.85-2.52-5-3.76-5.76-7.34,0-3.66,1.53-5.79,2.09-8.9,2.39-2.85,4-6.45,6.81-8.91,1.78-3.46,6.5-4,6.29-9.42C122.08,9.92,120,9.58,118.15,9c-.67,0-.73.67-1.57.53-9,4.66-14.19,13-19.38,21.47-.66,3.88-2.08,7-1.57,12C96.4,43.11,96.11,44.27,96.15,45.1ZM139.1,62.39c.3,4.66-3.08,5.65-2.62,10.48,1.1,1.7,2.18,3.41,4.72,3.66,3.93-.08,5.39-2.64,7.33-4.71a19.09,19.09,0,0,0,2.62-9.43c-.1-2.87-1-5-1.57-7.33-1.26-1.54-2.37-3.22-3.67-4.72-1.61-1.35-3.29-2.64-3.66-5.24.64-5.81,5.51-7.4,6.28-13.09a5.65,5.65,0,0,0-3.66-2.62,13.5,13.5,0,0,1-4.2,1.05c-4.72,4.52-10.34,8.16-10,17.81C131.62,54.86,137.68,56.3,139.1,62.39Zm122.58,50.29a10.28,10.28,0,0,1-2.1-3.15c-3-2.59-9-2.13-14.67-2.09-4.5.91-8.32,2.5-12.57,3.66a52.31,52.31,0,0,1-5.24,3.15c-1.54.92-3.52,3.54-5.23,2.62-1-3.48.54-6.27-1-8.91-1.19-.38-1.57-1.57-2.1-2.62-10.69-6.24-22.69-11.17-39.81-11-14.59-2.88-32.69-2.24-49.24-3.15-.67,0-.72.67-1.57.53-15,1-32.38-.27-45.57,2.62-7.39.64-14.64,1.42-20.95,3.14-7.54.67-14.08,2.33-17.81,6.81-1.2,5.43-1.47,11.8-2.1,17.81a29.74,29.74,0,0,1-6.28-3.67c-1.92.34-2-1.13-3.67-1-1-.79-2.94-.55-3.67-1.57a111.36,111.36,0,0,0-18.33-1.57c-1.27,1.17-4.78.11-5.24,2.1-2.22.39-2.79,2.44-4.19,3.66C-1,126.85,2.05,131.69,4,136.77,6,138.39,7.75,140.31,9.72,142c4,1.19,7.49,3,12,3.67a35,35,0,0,0,6.81,1c1.6,1.18,5.39.19,6.28,2.09.23,4.51-.85,7.11,0,11,1.06,1,1.72,2.48,3.15,3.15.9,1.36,4.32.21,4.19,2.61C43,183,43.1,201,45.86,216.39c1.29,1.85,1.47,4.82,3.15,6.29.22,3.09,2.16,4.47,3.14,6.81A60.83,60.83,0,0,0,71,238.92a27,27,0,0,0,7.33.52c8.4,1.79,17.67,4.16,27.76,4.71,7.8.44,16.11-.52,24.62-.52,25.28,0,51-1.26,70.19-6.28,4.09-3.6,9-6.38,13.1-10,1.12-2.54,3.25-4.08,3.67-7.33,1-.78,1.3-2.19,2.61-2.62.68-1.24,1.35-2.5,2.1-3.67,1.5-10,1.64-21.41,2.09-32.47,1.33-4.44-.19-11.72,1-16.24a144.62,144.62,0,0,0-.52-17.29A37.75,37.75,0,0,1,237,143c6.29-5.4,14-9.41,19.9-15.19,1.47-4.47,4.68-7.19,5.24-12.57C261.06,115.39,262,113.44,261.68,112.68Zm-220,25.66c-1.07,1.12-2.07-.14-3.14-.52s-2.61-.18-3.14-1A97.89,97.89,0,0,1,14,132.06c-1.38-1.89-3.9-5-3.14-7.34a65.16,65.16,0,0,1,16.24,1.57C29.82,128,32.88,129.5,36,131a29.75,29.75,0,0,0,3.67,3.15c1.74.31,2.43,1.72,2,4.19ZM60,104.82c2.56.12,4-.92,6.81-.52,4.27-.45,8.08-1.35,13.09-1,8.57-1,18.11-1.1,26.72-2.1.84.15.9-.49,1.57-.52,27.15-.62,51.57,1.51,75.43,4.19-1,1.64-4,1.21-6.29,1.57A26.5,26.5,0,0,1,170,107c-4.53.72-9.29,1.19-13.62,2.1H110.3c-1.76.33-4.86-.67-5.76.52-8.39-.33-18.14.69-25.67-.52-4.7.34-8.27-.46-12.57-.52s-9.13.39-11.52-1.58c.66-1.82,3.87-1,5.23-2.14Zm153,98a39.22,39.22,0,0,1-8.38,18.86c-1.3,1-3,1.59-3.67,3.14a72.77,72.77,0,0,0-9.43,4.19,8.21,8.21,0,0,1-4.71,0c-9,3.58-22,3.11-33.52,4.2-10-.36-18.12,1.09-27.24,1.57a36,36,0,0,1-7.86-1c-1.81.81-4.77.46-7.33.52C96.23,233.59,84.41,230,71.07,228a18.32,18.32,0,0,0-4.72-2.62c-3.14-3.85-6.81-7.15-7.85-13.09,7.83,2.63,14.82,6.12,25.14,6.28,2.23-1.09,5.25-1.38,5.76-4.19C89,211,86.14,210,82.59,209.68c-.83-1.09-3.66-.17-4.71-1-1.69-.24-2.84-1-4.72-1a86.12,86.12,0,0,1-16.3-6.48v-6.28c5.77.86,10.31,3,16.77,3.14.55,1.19,3.29.2,4.71.52.39,1.19,2.94.21,4.19.53,2.75-.4,5.21-1.08,5.76-3.67.09-3.93-3.18-4.5-6.28-5.24-3.74.07-6.52-.81-10-1a74.85,74.85,0,0,0-10-1.58c-1.8-1.47-8.08.11-5.24-4.71-.5-1.89,2.26-.93,2.62-.53,1.61-.38,1.54.91,3.15.53,1.84.59,4.31.58,6.28,1,2.46-.86,4.88-1.76,5.24-4.72-.23-4.49-3.84-5.58-8.38-5.76-3.52-1-8.82-.26-7.33-6.29,2.91-.44,10.46,1.2,11-3.14-.43-5.51-7-4.93-11-6.81A291.72,291.72,0,0,1,58,116.87c8.24,1.66,18.55,3,27.24,2.62,10.35,1,20.83,1.87,32,2.09,1.93-.34,4-.56,5.76-1h34A198.51,198.51,0,0,1,179,118c7.53-.51,13-3.11,21-3.15,2.34-.79,5-1.24,7.33-2.09h1.57c1.89-.15,1.2,2.29,2.1,3.14a9.77,9.77,0,0,1,.52,4.19v9.43c-.24,2.85.93,4.3.52,7.33a19.7,19.7,0,0,0-8.38,4.19,5.17,5.17,0,0,1-1.57,3.15v8.38c.52,1.93,2.29,2.59,3.14,4.19,1.54.55,3.47.72,4.72,1.57,2.14.51,3.35-1.3,4.71,0,.34,15.79-1.66,29.1-1.66,44.48Zm-4.71-52.38c.08-1.65-1.4-1.75-1-3.66.37-4.21,5.66-5.14,7.86-2.1,1.44,4.62-2.94,8-6.92,5.71Zm38.76-28.28c-1.59,2.08-4.49,2.84-6.81,4.18-4.8,2.36-10.82,3.5-15.72,5.77-.68-1.58-.35-4.18-1-5.77,7.74-5.17,16.51-9.33,28.81-9.94-.65,3.07-3.12,4.26-5.34,5.71Z"/></g></g></g></g></g></svg>