<svg width="132" height="136" viewBox="0 0 132 136" fill="none" xmlns="http://www.w3.org/2000/svg">
<path d="M131.998 70.3355C131.886 77.3523 130.949 84.3311 129.207 91.1255C128.378 94.2481 127.168 97.2548 125.603 100.076C122.247 106.286 117.801 111.831 112.48 116.44C107.243 121.024 101.736 125.284 95.9876 129.197C88.3905 134.385 79.2294 136.723 70.0986 135.805C65.6218 135.408 61.1205 135.408 56.6683 134.887C46.9339 133.949 37.5948 130.537 29.5249 124.97C23.1184 120.647 17.5013 115.241 12.9215 108.99C5.80281 99.05 1.4465 87.3744 0.302718 75.1695C-0.841059 62.9647 1.2692 50.6734 6.41541 39.5658C10.3719 31.0077 16.2348 23.4857 23.5476 17.5857C30.6317 11.6351 38.6752 7.23409 46.9154 3.21742C50.6622 1.42802 54.7178 0.388125 58.8575 0.15533C70.4844 -0.64269 82.1159 1.64406 92.5931 6.78779C99.3664 9.88877 105.596 14.0754 111.041 19.1849C116.647 24.7879 121.19 31.3755 124.447 38.6236C125.96 41.8593 127.3 45.1817 128.69 48.4793C131.408 54.9754 132.035 61.9178 131.998 70.3355ZM68.2784 127.548C68.426 127.548 68.9425 127.548 69.5083 127.548C70.074 127.548 70.5537 127.623 71.0702 127.66C78.2744 128.394 85.5043 126.541 91.4862 122.428C97 118.687 102.278 114.605 107.29 110.205C111.928 106.239 115.765 101.412 118.593 95.9852C119.735 93.8083 120.654 91.5195 121.335 89.1543C123.302 81.7024 124.18 74.0013 123.943 66.294C123.916 60.1023 122.543 53.9917 119.921 48.3926C119.294 47.0661 118.753 45.7024 118.187 44.3511C115.825 38.7089 112.655 33.4461 108.778 28.7307C107.198 26.6237 105.35 24.7355 103.281 23.1148C98.9429 19.8443 94.3626 16.9141 89.5799 14.35C80.2636 9.62193 69.8516 7.5229 59.4479 8.27545C55.8879 8.48143 52.4122 9.44922 49.2521 11.1144C45.9561 12.8624 42.6354 14.5856 39.4131 16.4452C34.4772 19.2425 29.8831 22.6127 25.7245 26.4868C15.8855 35.7351 10.6093 47.3388 8.6784 60.5913C7.47527 69.6513 8.31607 78.8682 11.1382 87.5551C16.7218 105.903 32.9439 121.92 51.9579 125.875C57.3509 126.825 62.8056 127.376 68.2784 127.523V127.548Z" fill="#FCFDF7"/>
<path d="M59.2631 87.208C61.0947 86.0665 62.7138 84.6106 64.0473 82.9062C66.6177 79.5714 69.1882 76.2242 71.7955 72.9141C72.8124 71.5529 73.922 70.2646 75.1162 69.0586C81.5714 62.7734 87.3435 55.8123 92.3345 48.2934C93.7612 46.1487 95.3969 44.1528 96.9466 42.0949C97.1569 41.8103 97.3915 41.5449 97.6476 41.3014C98.2825 40.5996 99.1436 40.1472 100.078 40.0246C101.012 39.9021 101.96 40.1173 102.752 40.632C103.518 41.1675 104.07 41.9607 104.309 42.8694C104.548 43.7782 104.458 44.743 104.055 45.5908C103.697 46.3968 103.247 47.1581 102.715 47.8595C100.353 51.1324 97.8936 54.3432 95.606 57.6656C92.1912 62.6626 88.3119 67.3201 84.0205 71.5752C80.0645 75.6478 76.3946 79.9932 73.0377 84.5798C70.6886 87.6543 68.4134 90.7784 65.1911 93.0347C64.2048 93.7637 63.1692 94.4223 62.0918 95.0058C61.1076 95.5348 60.0004 95.7874 58.8861 95.7373C57.7718 95.6871 56.6914 95.336 55.7579 94.7207C55.1099 94.3197 54.4857 93.8809 53.8885 93.4066C49.3793 89.7835 45.1676 85.7993 41.2945 81.4929C38.6995 78.6416 36.0306 75.8398 33.4233 73.0009C32.6882 72.2382 32.0253 71.4082 31.4432 70.5215C31.0585 70.0122 30.8485 69.3907 30.8449 68.7506C30.8414 68.1105 31.0444 67.4866 31.4234 66.973C31.8024 66.4594 32.3368 66.084 32.9461 65.9034C33.5553 65.7228 34.2062 65.7467 34.8007 65.9717C37.4188 66.629 39.8141 67.9818 41.7373 69.8892C43.373 71.5628 44.935 73.3108 46.4846 75.0712C50.0248 79.1378 53.896 82.899 58.0578 86.3154C58.4144 86.5758 58.7957 86.8485 59.2631 87.208Z" fill="#FCFDF7"/>
</svg>
