<svg width="332" height="290" viewBox="0 0 332 290" fill="none" xmlns="http://www.w3.org/2000/svg">
<g clip-path="url(#clip0)">
<path d="M166.178 24.9759L161.303 22.2232C162.296 20.4647 164.159 19.3771 166.178 19.3771C168.198 19.3771 170.061 20.4647 171.053 22.2232L166.178 24.9759ZM134.534 92.4069L131.782 97.2822L122.031 91.7768L124.784 86.9015L134.534 92.4069ZM207.573 86.9015L210.325 91.7768L200.575 97.2822L197.822 92.4069L207.573 86.9015ZM68.6656 186.018L71.4123 181.14L81.1697 186.633L78.423 191.512L68.6656 186.018ZM253.936 191.772L251.184 186.896L260.935 181.392L263.687 186.267L253.936 191.772ZM298.003 283.689L298.003 289.288H298.003V283.689ZM326.506 278.09L332.105 278.09L332.105 289.288L326.506 289.288L326.506 278.09ZM5.85035 289.288L0.251607 289.288L0.251583 278.09L5.85033 278.09L5.85035 289.288ZM34.3531 283.689L34.3531 289.288L34.353 289.288L34.3531 283.689ZM171.053 27.7286L134.534 92.4069L124.784 86.9015L161.303 22.2232L171.053 27.7286ZM197.822 92.4069L161.303 27.7286L171.053 22.2232L207.573 86.9015L197.822 92.4069ZM78.423 191.512L24.9804 286.436L15.223 280.942L68.6656 186.018L78.423 191.512ZM307.379 286.441L253.936 191.772L263.687 186.267L317.13 280.937L307.379 286.441ZM298.003 278.09L312.254 278.09L312.255 289.288L298.003 289.288L298.003 278.09ZM312.255 278.09L326.506 278.09L326.506 289.288L312.254 289.288L312.255 278.09ZM5.85033 278.09L20.1017 278.09L20.1017 289.288L5.85035 289.288L5.85033 278.09ZM20.1017 278.09L34.3531 278.09L34.353 289.288L20.1017 289.288L20.1017 278.09ZM34.3531 278.09H298.003V289.288H34.3531V278.09Z" fill="#B6796C"/>
<rect width="11.1951" height="47.9887" transform="matrix(-0.870513 0.492145 0.492145 0.870513 158.477 0)" fill="#B6796C"/>
<rect x="173.882" y="0.00012207" width="11.1966" height="47.9599" transform="rotate(29.4816 173.882 0.00012207)" fill="#B6796C"/>
<path d="M312.606 283.562L166.178 25.2835L19.7493 283.562H312.606Z" stroke="#B6796C" stroke-width="11.1975"/>
</g>
<defs>
<clipPath id="clip0">
<rect width="332" height="290" fill="white"/>
</clipPath>
</defs>
</svg>
