<svg width="24" height="24" viewBox="0 0 24 24" fill="none" xmlns="http://www.w3.org/2000/svg">
<path d="M12.6093 23.9989C11.3466 23.9766 10.4163 23.9855 9.5068 23.787C8.3262 23.5175 7.18907 23.0847 6.12835 22.5012C5.21216 22.0097 4.37698 21.3807 3.652 20.6362C3.49473 20.4762 3.36416 20.2895 3.2143 20.1221C3.02142 19.9058 2.81963 19.6984 2.62081 19.4836C2.48039 19.3324 2.34768 19.1742 2.22317 19.0096C1.08515 17.4808 0.48424 15.7269 0.172656 13.8604C-0.0209212 12.7797 -0.0519263 11.6763 0.0806652 10.5865C0.300257 8.92741 0.700864 7.30975 1.56439 5.85801C2.37154 4.51589 3.47247 3.43301 4.71435 2.48049C5.63708 1.80331 6.62578 1.22066 7.66549 0.741358C8.44272 0.365623 9.28933 0.154306 10.1522 0.120664C10.5647 0.102888 10.9772 -0.00969636 11.3882 0.000673226C12.4728 0.0303006 13.5618 0.0569653 14.639 0.172512C15.372 0.252506 16.0738 0.533966 16.7489 0.846535C17.1406 1.02874 17.5249 1.22873 17.9047 1.43908C19.6421 2.39751 21.0998 3.79068 22.1348 5.48174C22.9761 6.81497 23.4539 8.24746 23.7239 9.77771C23.9197 10.8799 24.0652 11.979 23.9702 13.0989C23.9079 14.0565 23.7239 15.0023 23.4227 15.9135C23.2609 16.3394 23.0669 16.7524 22.8426 17.149C22.0695 18.5815 21.16 19.9221 19.933 21.0006C18.9685 21.8509 17.9433 22.6449 16.7519 23.156C16.1094 23.4315 15.4165 23.5811 14.7266 23.7485C14.0353 23.9267 13.3231 24.0109 12.6093 23.9989ZM12.6093 7.16606V6.7572C12.6093 5.75135 12.6093 4.74402 12.6093 3.73669C12.6043 3.55955 12.5844 3.38315 12.5499 3.20932C12.5422 3.18059 12.5276 3.15415 12.5075 3.13223C12.4873 3.11032 12.4622 3.09357 12.4342 3.0834C12.2963 3.05497 12.1564 3.03763 12.0158 3.03156C11.719 3.00934 11.5929 3.08192 11.5454 3.3856C11.4509 3.86782 11.3944 4.35668 11.3763 4.84771C11.3763 7.03866 11.4 9.23109 11.4297 11.422C11.4218 11.6529 11.4778 11.8815 11.5914 12.0827C11.8764 12.5339 12.2092 12.9531 12.5841 13.333C13.1019 13.8189 13.6405 14.2826 14.1197 14.8144C14.5544 15.2914 15.0025 15.7565 15.4551 16.2172C15.7162 16.4824 15.9907 16.7372 16.2741 16.9816C16.3524 17.045 16.4449 17.0884 16.5437 17.1082C16.6425 17.128 16.7447 17.1236 16.8414 17.0953C16.9381 17.0671 17.0265 17.0158 17.099 16.946C17.1716 16.8761 17.226 16.7897 17.2578 16.6942C17.2815 16.6276 17.2815 16.5549 17.2578 16.4883C17.2163 16.3845 17.1576 16.2883 17.0842 16.2039C16.4091 15.4795 15.737 14.7522 15.047 14.0426C14.4536 13.4263 13.823 12.8353 13.2221 12.2205C13.0569 12.0413 12.9149 11.8423 12.7992 11.6279C12.541 11.1835 12.5395 10.6754 12.5484 10.1762C12.5643 9.17085 12.5845 8.16746 12.6093 7.16606Z" fill="#FCFDF7"/>
</svg>
